<svg xmlns="http://www.w3.org/2000/svg" version="1.1" viewBox="0 0 421 469" width="421" height="469"><defs></defs><g><g><title>Caller</title><rect x="30.50" y="84" width="8" height="301" fill="#00000000" stroke="#00000000" stroke-width="0"></rect><line x1="34" y1="84" x2="34" y2="385" stroke="#B58900" stroke-width="0.50" stroke-dasharray="5,5"></line></g><g><title>Breakfast Provider</title><rect x="144.77" y="84" width="8" height="301" fill="#00000000" stroke="#00000000" stroke-width="0"></rect><line x1="148.27" y1="84" x2="148.27" y2="385" stroke="#B58900" stroke-width="0.50" stroke-dasharray="5,5"></line></g><g><title>CosmosDB</title><rect x="245.73" y="84" width="8" height="301" fill="#00000000" stroke="#00000000" stroke-width="0"></rect><line x1="249.23" y1="84" x2="249.23" y2="385" stroke="#B58900" stroke-width="0.50" stroke-dasharray="5,5"></line></g><g><title>ServiceBus</title><rect x="332.90" y="84" width="8" height="301" fill="#00000000" stroke="#00000000" stroke-width="0"></rect><line x1="336.40" y1="84" x2="336.40" y2="385" stroke="#B58900" stroke-width="0.50" stroke-dasharray="5,5"></line></g><text x="13.90" y="81" font-size="14" fill="#000000" xml:space="preserve" style="white-space: pre" font-family="Dejavu Serif">Caller</text><circle cx="34" cy="23" r="16" fill="#FFFFCC" stroke="#B58900" stroke-width="2"></circle><path d="M34,43 C38,43 41,43 45,39 C53,39 61,47 61,55 L61,59 C61,63 57,67 53,67 L15,67 C11,67 7,63 7,59 L7,55 C7,47 15,39 23,39 C27,43 30,43 34,43" fill="#FFFFCC" stroke="#B58900" stroke-width="2"></path><text x="92.59" y="81" font-size="14" fill="#000000" xml:space="preserve" style="white-space: pre" font-family="Dejavu Serif">Breakfast Provider</text><circle cx="148.27" cy="53" r="12" fill="#FFFFCC" stroke="#B58900" stroke-width="2"></circle><line x1="136.27" y1="67" x2="160.27" y2="67" stroke="#B58900" stroke-width="2"></line><text x="213.95" y="81" font-size="14" fill="#000000" xml:space="preserve" style="white-space: pre" font-family="Dejavu Serif">CosmosDB</text><path d="M231.23,33 C231.23,23 249.23,23 249.23,23 C249.23,23 267.23,23 267.23,33 L267.23,59 C267.23,69 249.23,69 249.23,69 C249.23,69 231.23,69 231.23,59 L231.23,33" fill="#CCCCFF" stroke="#6C71C4" stroke-width="2"></path><path d="M231.23,33 C231.23,43 249.23,43 249.23,43 C249.23,43 267.23,43 267.23,33" fill="#00000000" stroke="#6C71C4" stroke-width="2"></path><path d="M299.52,59 L373.29,59 C378.29,59 378.29,71.50 378.29,71.50 C378.29,71.50 378.29,84 373.29,84 L299.52,84 C294.52,84 294.52,71.50 294.52,71.50 C294.52,71.50 294.52,59 299.52,59" fill="#CCCCFF" stroke="#6C71C4" stroke-width="2"></path><path d="M373.29,59 C368.29,59 368.29,71.50 368.29,71.50 C368.29,84 373.29,84 373.29,84" fill="#00000000" stroke="#6C71C4" stroke-width="2"></path><text x="299.52" y="76" font-size="14" fill="#000000" xml:space="preserve" style="white-space: pre" font-family="Dejavu Serif">ServiceBus</text><text x="13.90" y="461" font-size="14" fill="#000000" xml:space="preserve" style="white-space: pre" font-family="Dejavu Serif">Caller</text><circle cx="34" cy="403" r="16" fill="#FFFFCC" stroke="#B58900" stroke-width="2"></circle><path d="M34,423 C38,423 41,423 45,419 C53,419 61,427 61,435 L61,439 C61,443 57,447 53,447 L15,447 C11,447 7,443 7,439 L7,435 C7,427 15,419 23,419 C27,423 30,423 34,423" fill="#FFFFCC" stroke="#B58900" stroke-width="2"></path><text x="92.59" y="429" font-size="14" fill="#000000" xml:space="preserve" style="white-space: pre" font-family="Dejavu Serif">Breakfast Provider</text><circle cx="148.27" cy="401" r="12" fill="#FFFFCC" stroke="#B58900" stroke-width="2"></circle><line x1="136.27" y1="415" x2="160.27" y2="415" stroke="#B58900" stroke-width="2"></line><text x="213.95" y="443" font-size="14" fill="#000000" xml:space="preserve" style="white-space: pre" font-family="Dejavu Serif">CosmosDB</text><path d="M231.23,395 C231.23,385 249.23,385 249.23,385 C249.23,385 267.23,385 267.23,395 L267.23,421 C267.23,431 249.23,431 249.23,431 C249.23,431 231.23,431 231.23,421 L231.23,395" fill="#CCCCFF" stroke="#6C71C4" stroke-width="2"></path><path d="M231.23,395 C231.23,405 249.23,405 249.23,405 C249.23,405 267.23,405 267.23,395" fill="#00000000" stroke="#6C71C4" stroke-width="2"></path><path d="M299.52,385 L373.29,385 C378.29,385 378.29,397.50 378.29,397.50 C378.29,397.50 378.29,410 373.29,410 L299.52,410 C294.52,410 294.52,397.50 294.52,397.50 C294.52,397.50 294.52,385 299.52,385" fill="#CCCCFF" stroke="#6C71C4" stroke-width="2"></path><path d="M373.29,385 C368.29,385 368.29,397.50 368.29,397.50 C368.29,410 373.29,410 373.29,410" fill="#00000000" stroke="#6C71C4" stroke-width="2"></path><text x="299.52" y="402" font-size="14" fill="#000000" xml:space="preserve" style="white-space: pre" font-family="Dejavu Serif">ServiceBus</text><polygon points="13.56,97 356.56,97 366.56,108 356.56,120 13.56,120 3.56,108 13.56,97" fill="#000000" stroke="#B58900" stroke-width="2"></polygon><text x="165.62" y="113" font-size="13" fill="#FFFFFF" xml:space="preserve" style="white-space: pre" font-family="Dejavu Serif">Test</text><text x="187.09" y="113" font-size="13" fill="#FFFFFF" xml:space="preserve" style="white-space: pre" font-family="Dejavu Serif"> </text><text x="190.34" y="113" font-size="13" fill="#FFFFFF" xml:space="preserve" style="white-space: pre" font-family="Dejavu Serif">T1</text><polygon points="136.27,142 146.27,146 136.27,150 140.27,146" fill="#438DD5" stroke="#438DD5" stroke-width="1"></polygon><line x1="34" y1="146" x2="142.27" y2="146" stroke="#438DD5" stroke-width="2"></line><text x="41" y="141" font-size="13" fill="#000000" xml:space="preserve" style="white-space: pre" font-weight="bold" font-family="Dejavu Serif">1</text><text x="51.50" y="141" font-size="13" fill="#000000" xml:space="preserve" style="white-space: pre" font-family="Dejavu Serif">GET</text><text x="76.77" y="141" font-size="13" fill="#000000" xml:space="preserve" style="white-space: pre" font-family="Dejavu Serif"> </text><text x="80.02" y="141" font-size="13" fill="#000000" xml:space="preserve" style="white-space: pre" font-family="Dejavu Serif">/breakfast</text><path d="M153.27,137.50 L153.27,177.50 A7.50,7.50 0 0 0 160.77,185 L295.77,185 A7.50,7.50 0 0 0 303.27,177.50 L303.27,140 L293.27,130 L160.77,130 A7.50,7.50 0 0 0 153.27,137.50" fill="#FFFFCC" stroke="#B58900" stroke-width="2"></path><path d="M293.27,130 L293.27,136.25 A3.75,3.75 0 0 0 297.02,140 L303.27,140 L293.27,130" fill="#FFFFCC" stroke="#B58900" stroke-width="2"></path><text x="196.27" y="147" font-size="13" fill="#808080" xml:space="preserve" style="white-space: pre" font-family="Dejavu Serif">[Full</text><text x="221.55" y="147" font-size="13" fill="#808080" xml:space="preserve" style="white-space: pre" font-family="Dejavu Serif"> </text><text x="224.80" y="147" font-size="13" fill="#808080" xml:space="preserve" style="white-space: pre" font-family="Dejavu Serif">path]</text><text x="159.27" y="162" font-size="13" fill="#808080" xml:space="preserve" style="white-space: pre" font-family="Dejavu Serif">http://localhost/breakfast</text><text x="202.24" y="177" font-size="13" fill="#000000" xml:space="preserve" style="white-space: pre" font-family="Dejavu Serif">{"id":1}</text><polygon points="237.23,207 247.23,211 237.23,215 241.23,211" fill="#E74C3C" stroke="#E74C3C" stroke-width="1"></polygon><line x1="148.27" y1="211" x2="243.23" y2="211" stroke="#E74C3C" stroke-width="2"></line><text x="155.27" y="206" font-size="13" fill="#000000" xml:space="preserve" style="white-space: pre" font-weight="bold" font-family="Dejavu Serif">2</text><text x="165.77" y="206" font-size="13" fill="#000000" xml:space="preserve" style="white-space: pre" font-family="Dejavu Serif">query</text><path d="M254.23,202.50 L254.23,212.50 A7.50,7.50 0 0 0 261.73,220 L338.73,220 A7.50,7.50 0 0 0 346.23,212.50 L346.23,205 L336.23,195 L261.73,195 A7.50,7.50 0 0 0 254.23,202.50" fill="#FFFFCC" stroke="#B58900" stroke-width="2"></path><path d="M336.23,195 L336.23,201.25 A3.75,3.75 0 0 0 339.98,205 L346.23,205 L336.23,195" fill="#FFFFCC" stroke="#B58900" stroke-width="2"></path><text x="260.23" y="212" font-size="13" fill="#000000" xml:space="preserve" style="white-space: pre" font-family="Dejavu Serif">some</text><text x="287.68" y="212" font-size="13" fill="#000000" xml:space="preserve" style="white-space: pre" font-family="Dejavu Serif"> </text><text x="290.93" y="212" font-size="13" fill="#000000" xml:space="preserve" style="white-space: pre" font-family="Dejavu Serif">payload</text><polygon points="159.27,242 149.27,246 159.27,250 155.27,246" fill="#657B83" stroke="#657B83" stroke-width="1"></polygon><line x1="153.27" y1="246" x2="248.23" y2="246" stroke="#657B83" stroke-width="2" stroke-dasharray="2,2"></line><text x="203.21" y="241" font-size="13" fill="#000000" xml:space="preserve" style="white-space: pre" font-weight="bold" font-family="Dejavu Serif">3</text><text x="213.71" y="241" font-size="13" fill="#000000" xml:space="preserve" style="white-space: pre" font-family="Dejavu Serif">1</text><text x="220.21" y="241" font-size="13" fill="#000000" xml:space="preserve" style="white-space: pre" font-family="Dejavu Serif"> </text><text x="223.46" y="241" font-size="13" fill="#000000" xml:space="preserve" style="white-space: pre" font-family="Dejavu Serif">doc</text><polygon points="324.40,271 334.40,275 324.40,279 328.40,275" fill="#9B59B6" stroke="#9B59B6" stroke-width="1"></polygon><line x1="148.27" y1="275" x2="330.40" y2="275" stroke="#9B59B6" stroke-width="2"></line><text x="155.27" y="270" font-size="13" fill="#000000" xml:space="preserve" style="white-space: pre" font-weight="bold" font-family="Dejavu Serif">4</text><text x="165.77" y="270" font-size="13" fill="#000000" xml:space="preserve" style="white-space: pre" font-family="Dejavu Serif">publish</text><path d="M341.40,264 L341.40,276 A5,5 0 0 0 346.40,281 L405.40,281 A5,5 0 0 0 410.40,276 L410.40,269 L400.40,259 L346.40,259 A5,5 0 0 0 341.40,264" fill="#FFFFCC" stroke="#B58900" stroke-width="2"></path><path d="M400.40,259 L400.40,266.50 A2.50,2.50 0 0 0 402.90,269 L410.40,269 L400.40,259" fill="#FFFFCC" stroke="#B58900" stroke-width="2"></path><text x="347.40" y="274" font-size="11" fill="#000000" xml:space="preserve" style="white-space: pre" font-family="Dejavu Serif">event</text><text x="371.22" y="274" font-size="11" fill="#000000" xml:space="preserve" style="white-space: pre" font-family="Dejavu Serif"> </text><text x="373.97" y="274" font-size="11" fill="#000000" xml:space="preserve" style="white-space: pre" font-family="Dejavu Serif">body</text><polygon points="13.56,291 356.56,291 366.56,301 356.56,311 13.56,311 3.56,301 13.56,291" fill="#D4EDDA" stroke="#B58900" stroke-width="2"></polygon><text x="130.68" y="305" font-size="11" fill="#000000" xml:space="preserve" style="white-space: pre" font-family="Dejavu Serif">✓</text><text x="138.92" y="305" font-size="11" fill="#000000" xml:space="preserve" style="white-space: pre" font-family="Dejavu Serif"> </text><text x="141.67" y="305" font-size="11" fill="#000000" xml:space="preserve" style="white-space: pre" font-family="Dejavu Serif">the</text><text x="155.10" y="305" font-size="11" fill="#000000" xml:space="preserve" style="white-space: pre" font-family="Dejavu Serif"> </text><text x="157.85" y="305" font-size="11" fill="#000000" xml:space="preserve" style="white-space: pre" font-family="Dejavu Serif">mock</text><text x="182.29" y="305" font-size="11" fill="#000000" xml:space="preserve" style="white-space: pre" font-family="Dejavu Serif"> </text><text x="185.04" y="305" font-size="11" fill="#000000" xml:space="preserve" style="white-space: pre" font-family="Dejavu Serif">answers</text><text x="220.48" y="305" font-size="11" fill="#000000" xml:space="preserve" style="white-space: pre" font-family="Dejavu Serif"> </text><text x="223.23" y="305" font-size="11" fill="#000000" xml:space="preserve" style="white-space: pre" font-family="Dejavu Serif">200</text><polygon points="13.56,321 356.56,321 366.56,331 356.56,341 13.56,341 3.56,331 13.56,321" fill="#F8D7DA" stroke="#B58900" stroke-width="2"></polygon><text x="152.92" y="335" font-size="11" fill="#000000" xml:space="preserve" style="white-space: pre" font-family="Dejavu Serif">✗</text><text x="161.90" y="335" font-size="11" fill="#000000" xml:space="preserve" style="white-space: pre" font-family="Dejavu Serif"> </text><text x="164.65" y="335" font-size="11" fill="#000000" xml:space="preserve" style="white-space: pre" font-family="Dejavu Serif">failed</text><text x="189.69" y="335" font-size="11" fill="#000000" xml:space="preserve" style="white-space: pre" font-family="Dejavu Serif"> </text><text x="192.44" y="335" font-size="11" fill="#000000" xml:space="preserve" style="white-space: pre" font-family="Dejavu Serif">assert</text><polygon points="45,363 35,367 45,371 41,367" fill="#657B83" stroke="#657B83" stroke-width="1"></polygon><line x1="39" y1="367" x2="147.27" y2="367" stroke="#657B83" stroke-width="2" stroke-dasharray="2,2"></line><text x="89.24" y="362" font-size="13" fill="#000000" xml:space="preserve" style="white-space: pre" font-weight="bold" font-family="Dejavu Serif">5</text><text x="99.74" y="362" font-size="13" fill="#0000FF" xml:space="preserve" style="white-space: pre" text-decoration="underline" font-family="Dejavu Serif">200</text><text x="119.24" y="362" font-size="13" fill="#0000FF" xml:space="preserve" style="white-space: pre" text-decoration="underline" font-family="Dejavu Serif"> </text><text x="122.49" y="362" font-size="13" fill="#0000FF" xml:space="preserve" style="white-space: pre" text-decoration="underline" font-family="Dejavu Serif">OK</text></g></svg>