<svg xmlns="http://www.w3.org/2000/svg" version="1.1" viewBox="0 0 420 446" width="420" height="446"><defs></defs><g><g><title>Caller</title><rect x="20.29" y="78" width="8" height="290" fill="#00000000" stroke="#00000000" stroke-width="0"></rect><line x1="23.79" y1="78" x2="23.79" y2="368" stroke="#2A86E2" stroke-width="0.50" stroke-dasharray="5,5"></line></g><g><title>Breakfast Provider</title><rect x="138.99" y="78" width="8" height="290" fill="#00000000" stroke="#00000000" stroke-width="0"></rect><line x1="142.49" y1="78" x2="142.49" y2="368" stroke="#2A86E2" stroke-width="0.50" stroke-dasharray="5,5"></line></g><g><title>CosmosDB</title><rect x="235.52" y="78" width="8" height="290" fill="#00000000" stroke="#00000000" stroke-width="0"></rect><line x1="239.02" y1="78" x2="239.02" y2="368" stroke="#2A86E2" stroke-width="0.50" stroke-dasharray="5,5"></line></g><g><title>ServiceBus</title><rect x="318.54" y="78" width="8" height="290" fill="#00000000" stroke="#00000000" stroke-width="0"></rect><line x1="322.04" y1="78" x2="322.04" y2="368" stroke="#2A86E2" stroke-width="0.50" stroke-dasharray="5,5"></line></g><text x="5" y="76" font-size="11" fill="#000000" xml:space="preserve" style="white-space: pre" font-family="Verdana">Caller</text><circle cx="23.79" cy="13.50" r="8" fill="#2A86E2" stroke="#1A66C2" stroke-width="0.50"></circle><path d="M23.79,21.50 L23.79,48.50 M10.79,29.50 L36.79,29.50 M23.79,48.50 L10.79,63.50 M23.79,48.50 L36.79,63.50" fill="#00000000" stroke="#1A66C2" stroke-width="0.50"></path><text x="88.56" y="76" font-size="11" fill="#000000" xml:space="preserve" style="white-space: pre" font-family="Verdana">Breakfast Provider</text><circle cx="142.49" cy="49" r="12" fill="#2A86E2" stroke="#1A66C2" stroke-width="0.50"></circle><line x1="130.49" y1="63" x2="154.49" y2="63" stroke="#1A66C2" stroke-width="0.50"></line><text x="206.42" y="76" font-size="11" fill="#000000" xml:space="preserve" style="white-space: pre" font-family="Verdana">CosmosDB</text><path d="M221.02,29 C221.02,19 239.02,19 239.02,19 C239.02,19 257.02,19 257.02,29 L257.02,55 C257.02,65 239.02,65 239.02,65 C239.02,65 221.02,65 221.02,55 L221.02,29" fill="#CCCCCC" stroke="#AAAAAA" stroke-width="0.50"></path><path d="M221.02,29 C221.02,39 239.02,39 239.02,39 C239.02,39 257.02,39 257.02,29" fill="#00000000" stroke="#AAAAAA" stroke-width="0.50"></path><path d="M286.63,55 L357.44,55 C362.44,55 362.44,66.50 362.44,66.50 C362.44,66.50 362.44,78 357.44,78 L286.63,78 C281.63,78 281.63,66.50 281.63,66.50 C281.63,66.50 281.63,55 286.63,55" fill="#CCCCCC" stroke="#AAAAAA" stroke-width="0.50"></path><path d="M357.44,55 C352.44,55 352.44,66.50 352.44,66.50 C352.44,78 357.44,78 357.44,78" fill="#00000000" stroke="#AAAAAA" stroke-width="0.50"></path><text x="286.63" y="71" font-size="11" fill="#000000" xml:space="preserve" style="white-space: pre" font-family="Verdana">ServiceBus</text><text x="5" y="439" font-size="11" fill="#000000" xml:space="preserve" style="white-space: pre" font-family="Verdana">Caller</text><circle cx="23.79" cy="376.50" r="8" fill="#2A86E2" stroke="#1A66C2" stroke-width="0.50"></circle><path d="M23.79,384.50 L23.79,411.50 M10.79,392.50 L36.79,392.50 M23.79,411.50 L10.79,426.50 M23.79,411.50 L36.79,426.50" fill="#00000000" stroke="#1A66C2" stroke-width="0.50"></path><text x="88.56" y="411" font-size="11" fill="#000000" xml:space="preserve" style="white-space: pre" font-family="Verdana">Breakfast Provider</text><circle cx="142.49" cy="384" r="12" fill="#2A86E2" stroke="#1A66C2" stroke-width="0.50"></circle><line x1="130.49" y1="398" x2="154.49" y2="398" stroke="#1A66C2" stroke-width="0.50"></line><text x="206.42" y="425" font-size="11" fill="#000000" xml:space="preserve" style="white-space: pre" font-family="Verdana">CosmosDB</text><path d="M221.02,378 C221.02,368 239.02,368 239.02,368 C239.02,368 257.02,368 257.02,378 L257.02,404 C257.02,414 239.02,414 239.02,414 C239.02,414 221.02,414 221.02,404 L221.02,378" fill="#CCCCCC" stroke="#AAAAAA" stroke-width="0.50"></path><path d="M221.02,378 C221.02,388 239.02,388 239.02,388 C239.02,388 257.02,388 257.02,378" fill="#00000000" stroke="#AAAAAA" stroke-width="0.50"></path><path d="M286.63,368 L357.44,368 C362.44,368 362.44,379.50 362.44,379.50 C362.44,379.50 362.44,391 357.44,391 L286.63,391 C281.63,391 281.63,379.50 281.63,379.50 C281.63,379.50 281.63,368 286.63,368" fill="#CCCCCC" stroke="#AAAAAA" stroke-width="0.50"></path><path d="M357.44,368 C352.44,368 352.44,379.50 352.44,379.50 C352.44,391 357.44,391 357.44,391" fill="#00000000" stroke="#AAAAAA" stroke-width="0.50"></path><text x="286.63" y="384" font-size="11" fill="#000000" xml:space="preserve" style="white-space: pre" font-family="Verdana">ServiceBus</text><polygon points="9.19,91 336.19,91 346.19,101 336.19,112 9.19,112 -0.81,101 9.19,91" fill="#000000" stroke="#1A66C2" stroke-width="0.50"></polygon><text x="152.98" y="106" font-size="11" fill="#FFFFFF" xml:space="preserve" style="white-space: pre" font-family="Verdana">Test</text><text x="175.20" y="106" font-size="11" fill="#FFFFFF" xml:space="preserve" style="white-space: pre" font-family="Verdana"> </text><text x="179.07" y="106" font-size="11" fill="#FFFFFF" xml:space="preserve" style="white-space: pre" font-family="Verdana">T1</text><polygon points="130.49,132 140.49,136 130.49,140 134.49,136" fill="#438DD5" stroke="#438DD5" stroke-width="1"></polygon><line x1="23.79" y1="136" x2="136.49" y2="136" stroke="#438DD5" stroke-width="1"></line><text x="30.79" y="132" font-size="11" fill="#333333" xml:space="preserve" style="white-space: pre" font-weight="bold" font-family="Verdana">1</text><text x="42.61" y="132" font-size="11" fill="#333333" xml:space="preserve" style="white-space: pre" font-family="Verdana">GET</text><text x="64.87" y="132" font-size="11" fill="#333333" xml:space="preserve" style="white-space: pre" font-family="Verdana"> </text><text x="68.74" y="132" font-size="11" fill="#333333" xml:space="preserve" style="white-space: pre" font-family="Verdana">/breakfast</text><path d="M147.49,122 L147.49,171 L310.49,171 L310.49,132 L300.49,122 L147.49,122" fill="#2A86E2" stroke="#1A66C2" stroke-width="0.50"></path><path d="M300.49,122 L300.49,132 L310.49,132 L300.49,122" fill="#2A86E2" stroke="#1A66C2" stroke-width="0.50"></path><text x="153.49" y="138" font-size="11" fill="#808080" xml:space="preserve" style="white-space: pre" font-family="Verdana">[Full</text><text x="177.80" y="138" font-size="11" fill="#808080" xml:space="preserve" style="white-space: pre" font-family="Verdana"> </text><text x="181.67" y="138" font-size="11" fill="#808080" xml:space="preserve" style="white-space: pre" font-family="Verdana">path]</text><text x="153.49" y="151" font-size="11" fill="#808080" xml:space="preserve" style="white-space: pre" font-family="Verdana">http://localhost/breakfast</text><text x="153.49" y="164" font-size="11" fill="#000000" xml:space="preserve" style="white-space: pre" font-family="Verdana">{"id":1}</text><polygon points="227.02,191 237.02,195 227.02,199 231.02,195" fill="#E74C3C" stroke="#E74C3C" stroke-width="1"></polygon><line x1="142.49" y1="195" x2="233.02" y2="195" stroke="#E74C3C" stroke-width="1"></line><text x="149.49" y="191" font-size="11" fill="#333333" xml:space="preserve" style="white-space: pre" font-weight="bold" font-family="Verdana">2</text><text x="161.31" y="191" font-size="11" fill="#333333" xml:space="preserve" style="white-space: pre" font-family="Verdana">query</text><path d="M244.02,181 L244.02,204 L341.02,204 L341.02,191 L331.02,181 L244.02,181" fill="#2A86E2" stroke="#1A66C2" stroke-width="0.50"></path><path d="M331.02,181 L331.02,191 L341.02,191 L331.02,181" fill="#2A86E2" stroke="#1A66C2" stroke-width="0.50"></path><text x="250.02" y="197" font-size="11" fill="#000000" xml:space="preserve" style="white-space: pre" font-family="Verdana">some</text><text x="279.68" y="197" font-size="11" fill="#000000" xml:space="preserve" style="white-space: pre" font-family="Verdana"> </text><text x="283.55" y="197" font-size="11" fill="#000000" xml:space="preserve" style="white-space: pre" font-family="Verdana">payload</text><polygon points="153.49,224 143.49,228 153.49,232 149.49,228" fill="#000000" stroke="#000000" stroke-width="1"></polygon><line x1="147.49" y1="228" x2="238.02" y2="228" stroke="#000000" stroke-width="1" stroke-dasharray="2,2"></line><text x="159.49" y="224" font-size="11" fill="#333333" xml:space="preserve" style="white-space: pre" font-weight="bold" font-family="Verdana">3</text><text x="171.31" y="224" font-size="11" fill="#333333" xml:space="preserve" style="white-space: pre" font-family="Verdana">1</text><text x="178.30" y="224" font-size="11" fill="#333333" xml:space="preserve" style="white-space: pre" font-family="Verdana"> </text><text x="182.17" y="224" font-size="11" fill="#333333" xml:space="preserve" style="white-space: pre" font-family="Verdana">doc</text><polygon points="310.04,251 320.04,255 310.04,259 314.04,255" fill="#9B59B6" stroke="#9B59B6" stroke-width="1"></polygon><line x1="142.49" y1="255" x2="316.04" y2="255" stroke="#9B59B6" stroke-width="1"></line><text x="149.49" y="251" font-size="11" fill="#333333" xml:space="preserve" style="white-space: pre" font-weight="bold" font-family="Verdana">4</text><text x="161.31" y="251" font-size="11" fill="#333333" xml:space="preserve" style="white-space: pre" font-family="Verdana">publish</text><path d="M327.04,246 L327.04,259 A5,5 0 0 0 332.04,264 L404.04,264 A5,5 0 0 0 409.04,259 L409.04,251 L399.04,241 L332.04,241 A5,5 0 0 0 327.04,246" fill="#2A86E2" stroke="#1A66C2" stroke-width="0.50"></path><path d="M399.04,241 L399.04,248.50 A2.50,2.50 0 0 0 401.54,251 L409.04,251 L399.04,241" fill="#2A86E2" stroke="#1A66C2" stroke-width="0.50"></path><text x="333.04" y="257" font-size="11" fill="#000000" xml:space="preserve" style="white-space: pre" font-family="Verdana">event</text><text x="363.85" y="257" font-size="11" fill="#000000" xml:space="preserve" style="white-space: pre" font-family="Verdana"> </text><text x="367.72" y="257" font-size="11" fill="#000000" xml:space="preserve" style="white-space: pre" font-family="Verdana">body</text><polygon points="9.19,274 336.19,274 346.19,284 336.19,295 9.19,295 -0.81,284 9.19,274" fill="#D4EDDA" stroke="#1A66C2" stroke-width="0.50"></polygon><text x="104.20" y="289" font-size="11" fill="#000000" xml:space="preserve" style="white-space: pre" font-family="Verdana">✓</text><text x="112.43" y="289" font-size="11" fill="#000000" xml:space="preserve" style="white-space: pre" font-family="Verdana"> </text><text x="116.30" y="289" font-size="11" fill="#000000" xml:space="preserve" style="white-space: pre" font-family="Verdana">the</text><text x="134.15" y="289" font-size="11" fill="#000000" xml:space="preserve" style="white-space: pre" font-family="Verdana"> </text><text x="138.02" y="289" font-size="11" fill="#000000" xml:space="preserve" style="white-space: pre" font-family="Verdana">mock</text><text x="167.63" y="289" font-size="11" fill="#000000" xml:space="preserve" style="white-space: pre" font-family="Verdana"> </text><text x="171.50" y="289" font-size="11" fill="#000000" xml:space="preserve" style="white-space: pre" font-family="Verdana">answers</text><text x="216.78" y="289" font-size="11" fill="#000000" xml:space="preserve" style="white-space: pre" font-family="Verdana"> </text><text x="220.65" y="289" font-size="11" fill="#000000" xml:space="preserve" style="white-space: pre" font-family="Verdana">200</text><polygon points="9.19,305 336.19,305 346.19,315 336.19,326 9.19,326 -0.81,315 9.19,305" fill="#F8D7DA" stroke="#1A66C2" stroke-width="0.50"></polygon><text x="132.77" y="320" font-size="11" fill="#000000" xml:space="preserve" style="white-space: pre" font-family="Verdana">✗</text><text x="141.75" y="320" font-size="11" fill="#000000" xml:space="preserve" style="white-space: pre" font-family="Verdana"> </text><text x="145.62" y="320" font-size="11" fill="#000000" xml:space="preserve" style="white-space: pre" font-family="Verdana">failed</text><text x="175.54" y="320" font-size="11" fill="#000000" xml:space="preserve" style="white-space: pre" font-family="Verdana"> </text><text x="179.40" y="320" font-size="11" fill="#000000" xml:space="preserve" style="white-space: pre" font-family="Verdana">assert</text><polygon points="34.79,346 24.79,350 34.79,354 30.79,350" fill="#000000" stroke="#000000" stroke-width="1"></polygon><line x1="28.79" y1="350" x2="141.49" y2="350" stroke="#000000" stroke-width="1" stroke-dasharray="2,2"></line><text x="40.79" y="346" font-size="11" fill="#333333" xml:space="preserve" style="white-space: pre" font-weight="bold" font-family="Verdana">5</text><text x="52.61" y="346" font-size="11" fill="#0000FF" xml:space="preserve" style="white-space: pre" text-decoration="underline" font-family="Verdana">200</text><text x="73.59" y="346" font-size="11" fill="#0000FF" xml:space="preserve" style="white-space: pre" text-decoration="underline" font-family="Verdana"> </text><text x="77.45" y="346" font-size="11" fill="#0000FF" xml:space="preserve" style="white-space: pre" text-decoration="underline" font-family="Verdana">OK</text></g></svg>