<svg xmlns="http://www.w3.org/2000/svg" version="1.1" viewBox="0 0 589 435" width="589" height="435"><defs></defs><g><g><title>Test</title><rect x="225.97" y="81" width="8" height="273" fill="#00000000" stroke="#00000000" stroke-width="0"></rect><line x1="229.47" y1="81" x2="229.47" y2="354" stroke="#BABDBF" stroke-width="1" stroke-dasharray="5,5"></line></g><g><title>Api</title><rect x="334.86" y="81" width="8" height="273" fill="#00000000" stroke="#00000000" stroke-width="0"></rect><line x1="338.36" y1="81" x2="338.36" y2="354" stroke="#BABDBF" stroke-width="1" stroke-dasharray="5,5"></line></g><g><title>Db</title><rect x="432.35" y="81" width="8" height="273" fill="#00000000" stroke="#00000000" stroke-width="0"></rect><line x1="435.85" y1="81" x2="435.85" y2="354" stroke="#BABDBF" stroke-width="1" stroke-dasharray="5,5"></line></g><text x="214.35" y="78" font-size="12" fill="#343A40" xml:space="preserve" style="white-space: pre" font-family="'Verdana'">Test</text><circle cx="229.47" cy="14" r="8" fill="#59B6EC" stroke="#2FA4E7" stroke-width="1"></circle><path d="M229.47,22 L229.47,49 M216.47,30 L242.47,30 M229.47,49 L216.47,64 M229.47,49 L242.47,64" fill="#00000000" stroke="#2FA4E7" stroke-width="1"></path><rect x="308.87" y="30" width="58.97" height="45" rx="4" ry="4" fill="#59B6EC" stroke="#2FA4E7" stroke-width="1"></rect><text x="328.87" y="57" font-size="12" fill="#FFFFFF" xml:space="preserve" style="white-space: pre" font-family="'Verdana'">Api</text><text x="424.48" y="78" font-size="12" fill="#343A40" xml:space="preserve" style="white-space: pre" font-family="'Verdana'">Db</text><path d="M417.85,30 C417.85,20 435.85,20 435.85,20 C435.85,20 453.85,20 453.85,30 L453.85,56 C453.85,66 435.85,66 435.85,66 C435.85,66 417.85,66 417.85,56 L417.85,30" fill="#59B6EC" stroke="#2FA4E7" stroke-width="1"></path><path d="M417.85,30 C417.85,40 435.85,40 435.85,40 C435.85,40 453.85,40 453.85,30" fill="#00000000" stroke="#2FA4E7" stroke-width="1"></path><text x="214.35" y="366" font-size="12" fill="#343A40" xml:space="preserve" style="white-space: pre" font-family="'Verdana'">Test</text><circle cx="229.47" cy="378" r="8" fill="#59B6EC" stroke="#2FA4E7" stroke-width="1"></circle><path d="M229.47,386 L229.47,413 M216.47,394 L242.47,394 M229.47,413 L216.47,428 M229.47,413 L242.47,428" fill="#00000000" stroke="#2FA4E7" stroke-width="1"></path><rect x="308.87" y="359" width="58.97" height="45" rx="4" ry="4" fill="#59B6EC" stroke="#2FA4E7" stroke-width="1"></rect><text x="328.87" y="386" font-size="12" fill="#FFFFFF" xml:space="preserve" style="white-space: pre" font-family="'Verdana'">Api</text><text x="424.48" y="366" font-size="12" fill="#343A40" xml:space="preserve" style="white-space: pre" font-family="'Verdana'">Db</text><path d="M417.85,379 C417.85,369 435.85,369 435.85,369 C435.85,369 453.85,369 453.85,379 L453.85,405 C453.85,415 435.85,415 435.85,415 C435.85,415 417.85,415 417.85,405 L417.85,379" fill="#59B6EC" stroke="#2FA4E7" stroke-width="1"></path><path d="M417.85,379 C417.85,389 435.85,389 435.85,389 C435.85,389 453.85,389 453.85,379" fill="#00000000" stroke="#2FA4E7" stroke-width="1"></path><polygon points="326.36,106 336.36,110 326.36,114 330.36,110" fill="#2FA4E7" stroke="#2FA4E7" stroke-width="1"></polygon><line x1="229.47" y1="110" x2="332.36" y2="110" stroke="#2FA4E7" stroke-width="3"></line><text x="236.47" y="105" font-size="12" fill="#343A40" xml:space="preserve" style="white-space: pre" font-weight="bold" font-family="'Verdana'">1</text><text x="249.00" y="105" font-size="12" fill="#FD7E14" xml:space="preserve" style="white-space: pre" text-decoration="underline" font-family="'Verdana'">GET</text><text x="273.29" y="105" font-size="12" fill="#FD7E14" xml:space="preserve" style="white-space: pre" text-decoration="underline" font-family="'Verdana'"> </text><text x="277.51" y="105" font-size="12" fill="#FD7E14" xml:space="preserve" style="white-space: pre" text-decoration="underline" font-family="'Verdana'">/orders</text><path d="M10,98 L10,205 A4,4 0 0 0 14,209 L220,209 A4,4 0 0 0 224,205 L224,104 L214,94 L14,94 A4,4 0 0 0 10,98" fill="#35638F" stroke="#033C73" stroke-width="1"></path><path d="M214,94 L214,102 A2,2 0 0 0 216,104 L224,104 L214,94" fill="#35638F" stroke="#033C73" stroke-width="1"></path><text x="16" y="111" font-size="12" fill="#808080" xml:space="preserve" style="white-space: pre" font-family="'Verdana'">[accept=application/json]</text><text x="16" y="126" font-size="12" fill="#686868" xml:space="preserve" style="white-space: pre" font-family="'Verdana'">[content-type=application/json]</text><text x="16" y="141" font-size="12" fill="#FFFFFF" xml:space="preserve" style="white-space: pre" font-family="'Verdana'"> </text><text x="16" y="156" font-size="12" fill="#FFFFFF" xml:space="preserve" style="white-space: pre" font-family="'Verdana'">{"id":</text><text x="50.85" y="156" font-size="12" fill="#FFFFFF" xml:space="preserve" style="white-space: pre" font-family="'Verdana'"> </text><text x="55.07" y="156" font-size="12" fill="#FFFFFF" xml:space="preserve" style="white-space: pre" font-family="'Verdana'">1}</text><text x="16" y="171" font-size="12" fill="#FFFFFF" xml:space="preserve" style="white-space: pre" font-family="'Verdana'"> </text><text x="16" y="186" font-size="12" fill="#808080" xml:space="preserve" style="white-space: pre" font-family="'Verdana'">[Full</text><text x="42.53" y="186" font-size="12" fill="#808080" xml:space="preserve" style="white-space: pre" font-family="'Verdana'"> </text><text x="46.74" y="186" font-size="12" fill="#808080" xml:space="preserve" style="white-space: pre" font-family="'Verdana'">path]</text><text x="16" y="201" font-size="12" fill="#FFFFFF" xml:space="preserve" style="white-space: pre" font-family="'Verdana'">/orders?x=1</text><polygon points="423.85,231 433.85,235 423.85,239 427.85,235" fill="#2FA4E7" stroke="#2FA4E7" stroke-width="1"></polygon><line x1="338.36" y1="235" x2="429.85" y2="235" stroke="#2FA4E7" stroke-width="3"></line><text x="345.36" y="230" font-size="12" fill="#343A40" xml:space="preserve" style="white-space: pre" font-weight="bold" font-family="'Verdana'">2</text><text x="357.89" y="230" font-size="12" fill="#343A40" xml:space="preserve" style="white-space: pre" font-family="'Verdana'">SELECT</text><text x="403.72" y="230" font-size="12" fill="#343A40" xml:space="preserve" style="white-space: pre" font-family="'Verdana'"> </text><text x="407.94" y="230" font-size="12" fill="#343A40" xml:space="preserve" style="white-space: pre" font-family="'Verdana'">1</text><path d="M440.85,224 L440.85,276 A5,5 0 0 0 445.85,281 L572.85,281 A5,5 0 0 0 577.85,276 L577.85,229 L567.85,219 L445.85,219 A5,5 0 0 0 440.85,224" fill="#35638F" stroke="#033C73" stroke-width="1"></path><path d="M567.85,219 L567.85,226.50 A2.50,2.50 0 0 0 570.35,229 L577.85,229 L567.85,219" fill="#35638F" stroke="#033C73" stroke-width="1"></path><text x="446.85" y="235" font-size="11" fill="#808080" xml:space="preserve" style="white-space: pre" font-family="'Verdana'">[event=OrderPlaced]</text><text x="446.85" y="248" font-size="11" fill="#686868" xml:space="preserve" style="white-space: pre" font-family="'Verdana'">[topic=orders]</text><text x="446.85" y="261" font-size="11" fill="#FFFFFF" xml:space="preserve" style="white-space: pre" font-family="'Verdana'"> </text><text x="446.85" y="274" font-size="11" fill="#FFFFFF" xml:space="preserve" style="white-space: pre" font-family="'Verdana'">{"orderId":</text><text x="509.88" y="274" font-size="11" fill="#FFFFFF" xml:space="preserve" style="white-space: pre" font-family="'Verdana'"> </text><text x="513.74" y="274" font-size="11" fill="#FFFFFF" xml:space="preserve" style="white-space: pre" font-family="'Verdana'">1}</text><polygon points="349.36,303 339.36,307 349.36,311 345.36,307" fill="#2FA4E7" stroke="#2FA4E7" stroke-width="1"></polygon><line x1="343.36" y1="307" x2="434.85" y2="307" stroke="#2FA4E7" stroke-width="3" stroke-dasharray="2,2"></line><text x="355.36" y="302" font-size="12" fill="#343A40" xml:space="preserve" style="white-space: pre" font-weight="bold" font-family="'Verdana'">3</text><text x="367.89" y="302" font-size="12" fill="#343A40" xml:space="preserve" style="white-space: pre" font-family="'Verdana'">1</text><text x="375.52" y="302" font-size="12" fill="#343A40" xml:space="preserve" style="white-space: pre" font-family="'Verdana'"> </text><text x="379.74" y="302" font-size="12" fill="#343A40" xml:space="preserve" style="white-space: pre" font-family="'Verdana'">row</text><polygon points="240.47,332 230.47,336 240.47,340 236.47,336" fill="#2FA4E7" stroke="#2FA4E7" stroke-width="1"></polygon><line x1="234.47" y1="336" x2="337.36" y2="336" stroke="#2FA4E7" stroke-width="3" stroke-dasharray="2,2"></line><text x="246.47" y="331" font-size="12" fill="#343A40" xml:space="preserve" style="white-space: pre" font-weight="bold" font-family="'Verdana'">4</text><text x="259.00" y="331" font-size="12" fill="#343A40" xml:space="preserve" style="white-space: pre" font-family="'Verdana'">200</text><text x="281.89" y="331" font-size="12" fill="#343A40" xml:space="preserve" style="white-space: pre" font-family="'Verdana'"> </text><text x="286.11" y="331" font-size="12" fill="#343A40" xml:space="preserve" style="white-space: pre" font-family="'Verdana'">OK</text><?plantuml-src RP5DRnCn48RlyokcctF8RYi1YZQBeAG8WIYYaJX4ESpQayJKiItlB26j-jzhRq8aFkoBDUzyFFFwGhQyOrGSUylau294skm8XVq3IkmPwauEbXl05_oJdNpnmlW8cCyxKlURw7kdhxtr4KTgpMhzwYZUU2Ttve6ngew1RyV4w3XYLG8-GJqvzUxkZGiKQOVxIE6xqRB5gx84wiMxVjVc2W1IaeOK2-waGEeIOoUGoiGe4yW95c-36HGA1ZG9jTGn5k_R8QXRW5o2uoOdu1INov5PMxyVKwkgoolyC5_Wn4VDiLkjmELDBQy5QfNNcsuY7PebASL1PXI2DOh4U3VvqNct-fqrUlawtsQfaW79iB4S0lyd7HuBeuifLa_mvu2RtbeC9DiLd63U_9fLm4vZHeBCdbRGRThWRlvvVhr8vcIbhiy_r3GOpMRx5_eWpsvppw-M5Ej_eSK7esOd3pBZyFnu0ZqpfE7ZiuqLHhy_OgNOOF4KByiIRpyz0m00?></g></svg>