<svg xmlns="http://www.w3.org/2000/svg" xmlns:xlink="http://www.w3.org/1999/xlink" contentStyleType="text/css" height="334px" preserveAspectRatio="none" style="width:82px;height:334px;" version="1.1" viewBox="0 0 82 334" width="82px" zoomAndPan="magnify"><defs><linearGradient id="g14d5h2mp48uac0" x1="50%" x2="50%" y1="0%" y2="100%"><stop offset="0%" stop-color="#F4F4F4"/><stop offset="100%" stop-color="#F4F4F4"/></linearGradient></defs><g><line style="stroke:#C6C6C6;stroke-width:0.5;stroke-dasharray:5.0,5.0;" x1="33" x2="33" y1="100.0938" y2="235.2813"/><text fill="#262626" font-family="sans-serif" font-size="12" lengthAdjust="spacing" textLength="6.6738" x="27" y="87.457">a</text><ellipse cx="33.3369" cy="13.5" fill="url(#g14d5h2mp48uac0)" rx="8" ry="8" style="stroke:#C6C6C6;stroke-width:0.5;"/><path d="M33.3369,21.5 L33.3369,48.5 M20.3369,29.5 L46.3369,29.5 M33.3369,48.5 L20.3369,63.5 M33.3369,48.5 L46.3369,63.5 " fill="none" style="stroke:#C6C6C6;stroke-width:0.5;"/><text fill="#262626" font-family="sans-serif" font-size="12" lengthAdjust="spacing" textLength="6.6738" x="27" y="256.7383">a</text><ellipse cx="33.3369" cy="277.875" fill="url(#g14d5h2mp48uac0)" rx="8" ry="8" style="stroke:#C6C6C6;stroke-width:0.5;"/><path d="M33.3369,285.875 L33.3369,312.875 M20.3369,293.875 L46.3369,293.875 M33.3369,312.875 L20.3369,327.875 M33.3369,312.875 L46.3369,327.875 " fill="none" style="stroke:#C6C6C6;stroke-width:0.5;"/><line style="stroke:#C6C6C6;stroke-width:1.0;" x1="33.3369" x2="75.3369" y1="151.1875" y2="151.1875"/><line style="stroke:#C6C6C6;stroke-width:1.0;" x1="75.3369" x2="75.3369" y1="151.1875" y2="164.1875"/><line style="stroke:#C6C6C6;stroke-width:1.0;" x1="34.3369" x2="75.3369" y1="164.1875" y2="164.1875"/><polygon fill="#C6C6C6" points="44.3369,160.1875,34.3369,164.1875,44.3369,168.1875,40.3369,164.1875" style="stroke:#C6C6C6;stroke-width:1.0;"/><text fill="#262626" font-family="sans-serif" font-size="12" lengthAdjust="spacing" textLength="6" x="50.3369" y="136.5508">x</text><polygon fill="#FFFFFF" points="15,177.1875,51,177.1875,61,198.1875,51,220.1875,15,220.1875,5,198.1875,15,177.1875" style="stroke:#262626;stroke-width:1.0;"/><text fill="#262626" font-family="sans-serif" font-size="12" lengthAdjust="spacing" textLength="12.6738" x="27" y="203.6445">ok</text></g></svg>