<svg xmlns="http://www.w3.org/2000/svg" version="1.1" viewBox="0 0 212 245" width="212" height="245"><defs></defs><g><g><title>a</title><rect x="34.66" y="81" width="8" height="83" fill="#00000000" stroke="#00000000" stroke-width="0"></rect><line x1="38.16" y1="81" x2="38.16" y2="164" stroke="#181818" stroke-width="0.50" stroke-dasharray="5,5"></line></g><g><title>b</title><rect x="74.16" y="81" width="8" height="83" fill="#00000000" stroke="#00000000" stroke-width="0"></rect><line x1="77.66" y1="81" x2="77.66" y2="164" stroke="#181818" stroke-width="0.50" stroke-dasharray="5,5"></line></g><text x="31.27" y="78" font-size="14" fill="#000000" xml:space="preserve" style="white-space: pre" font-family="sans-serif">a</text><circle cx="38.16" cy="13.50" r="8" fill="#E2E2F0" stroke="#181818" stroke-width="0.50"></circle><path d="M38.16,21.50 L38.16,48.50 M25.16,29.50 L51.16,29.50 M38.16,48.50 L25.16,63.50 M38.16,48.50 L51.16,63.50" fill="#00000000" stroke="#181818" stroke-width="0.50"></path><text x="70.77" y="78" font-size="14" fill="#000000" xml:space="preserve" style="white-space: pre" font-family="sans-serif">b</text><circle cx="77.66" cy="49" r="12" fill="#E2E2F0" stroke="#181818" stroke-width="0.50"></circle><line x1="65.66" y1="63" x2="89.66" y2="63" stroke="#181818" stroke-width="0.50"></line><text x="31.27" y="237" font-size="14" fill="#000000" xml:space="preserve" style="white-space: pre" font-family="sans-serif">a</text><circle cx="38.16" cy="172.50" r="8" fill="#E2E2F0" stroke="#181818" stroke-width="0.50"></circle><path d="M38.16,180.50 L38.16,207.50 M25.16,188.50 L51.16,188.50 M38.16,207.50 L25.16,222.50 M38.16,207.50 L51.16,222.50" fill="#00000000" stroke="#181818" stroke-width="0.50"></path><text x="70.77" y="209" font-size="14" fill="#000000" xml:space="preserve" style="white-space: pre" font-family="sans-serif">b</text><circle cx="77.66" cy="180" r="12" fill="#E2E2F0" stroke="#181818" stroke-width="0.50"></circle><line x1="65.66" y1="194" x2="89.66" y2="194" stroke="#181818" stroke-width="0.50"></line><polygon points="65.66,106 75.66,110 65.66,114 69.66,110" fill="#181818" stroke="#181818" stroke-width="1"></polygon><line x1="38.16" y1="110" x2="71.66" y2="110" stroke="#181818" stroke-width="1"></line><text x="45.16" y="105" font-size="13" fill="#000000" xml:space="preserve" style="white-space: pre" font-family="sans-serif">x</text><path d="M82.66,94 L82.66,119 L200.66,119 L200.66,104 L190.66,94 L82.66,94" fill="#CFECF7" stroke="#181818" stroke-width="0.50"></path><path d="M190.66,94 L190.66,104 L200.66,104 L190.66,94" fill="#CFECF7" stroke="#181818" stroke-width="0.50"></path><text x="88.66" y="111" font-size="13" fill="#ECECEC" xml:space="preserve" style="white-space: pre" font-family="sans-serif">EventBodyProbe</text><polygon points="20,129 95,129 105,139 95,149 20,149 10,139 20,129" fill="#D4EDDA" stroke="#181818" stroke-width="0.50"></polygon><text x="22" y="143" font-size="11" fill="#ECECEC" xml:space="preserve" style="white-space: pre" font-family="sans-serif">✓ AssertProbe</text></g></svg>