<svg xmlns="http://www.w3.org/2000/svg" version="1.1" viewBox="0 0 118 215" width="118" height="215"><defs></defs><g><g><title>Caller</title><rect x="21.72" y="81" width="8" height="53" fill="#00000000" stroke="#00000000" stroke-width="0"></rect><line x1="25.22" y1="81" x2="25.22" y2="134" stroke="#6A9FB5" stroke-width="1" stroke-dasharray="5,5"></line></g><g><title>BP</title><rect x="70.01" y="81" width="8" height="53" fill="#00000000" stroke="#00000000" stroke-width="0"></rect><line x1="73.51" y1="81" x2="73.51" y2="134" stroke="#6A9FB5" stroke-width="1" stroke-dasharray="5,5"></line></g><text x="5" y="78" font-size="12" fill="#EAEAEA" xml:space="preserve" style="white-space: pre" font-family="'Verdana'">Caller</text><circle cx="25.22" cy="14" r="8" fill="#D3F198" stroke="#D3F198" stroke-width="1"></circle><path d="M25.22,22 L25.22,49 M12.22,30 L38.22,30 M25.22,49 L12.22,64 M25.22,49 L38.22,64" fill="#00000000" stroke="#D3F198" stroke-width="1"></path><text x="62.78" y="78" font-size="12" fill="#EAEAEA" xml:space="preserve" style="white-space: pre" font-family="'Verdana'">BP</text><circle cx="73.51" cy="50" r="12" fill="#D3F198" stroke="#D3F198" stroke-width="1"></circle><line x1="61.51" y1="64" x2="85.51" y2="64" stroke="#D3F198" stroke-width="1"></line><text x="5" y="207" font-size="12" fill="#EAEAEA" xml:space="preserve" style="white-space: pre" font-family="'Verdana'">Caller</text><circle cx="25.22" cy="143" r="8" fill="#D3F198" stroke="#D3F198" stroke-width="1"></circle><path d="M25.22,151 L25.22,178 M12.22,159 L38.22,159 M25.22,178 L12.22,193 M25.22,178 L38.22,193" fill="#00000000" stroke="#D3F198" stroke-width="1"></path><text x="62.78" y="178" font-size="12" fill="#EAEAEA" xml:space="preserve" style="white-space: pre" font-family="'Verdana'">BP</text><circle cx="73.51" cy="150" r="12" fill="#D3F198" stroke="#D3F198" stroke-width="1"></circle><line x1="61.51" y1="164" x2="85.51" y2="164" stroke="#D3F198" stroke-width="1"></line><polygon points="61.51,106 71.51,110 61.51,114 65.51,110" fill="#B5E853" stroke="#B5E853" stroke-width="1"></polygon><line x1="25.22" y1="110" x2="67.51" y2="110" stroke="#B5E853" stroke-width="3"></line><text x="32.22" y="105" font-size="12" fill="#FFFFFF" xml:space="preserve" style="white-space: pre" font-family="'Verdana'">GET</text><path d="M78.51,114 L78.51,99 A20,20 0 0 0 98.51,119 L86.51,119 A20,20 0 0 0 106.51,99 L106.51,104 L96.51,94 L98.51,94 A20,20 0 0 0 78.51,114" fill="#BB91B2" stroke="#885E7F" stroke-width="1"></path><path d="M96.51,94 L96.51,94 A10,10 0 0 0 106.51,104 L106.51,104 L96.51,94" fill="#BB91B2" stroke="#885E7F" stroke-width="1"></path><text x="84.51" y="111" font-size="12" fill="#FFFFFF" xml:space="preserve" style="white-space: pre" font-family="'Verdana'">n</text></g></svg>