<svg xmlns="http://www.w3.org/2000/svg" version="1.1" viewBox="0 0 442 501" width="442" height="501"><defs></defs><g><rect x="5" y="126" width="431.53" height="149" fill="#F6F6F6" stroke="#00000000" stroke-width="1"></rect><g><title>Caller</title><rect x="22.78" y="81" width="8" height="339" fill="#00000000" stroke="#00000000" stroke-width="0"></rect><line x1="26.28" y1="81" x2="26.28" y2="420" stroke="#181818" stroke-width="0.50" stroke-dasharray="5,5"></line></g><g><title>Breakfast Provider</title><rect x="145.43" y="81" width="8" height="339" fill="#00000000" stroke="#00000000" stroke-width="0"></rect><line x1="148.93" y1="81" x2="148.93" y2="420" stroke="#181818" stroke-width="0.50" stroke-dasharray="5,5"></line></g><g><title>CosmosDB</title><rect x="254.41" y="81" width="8" height="339" fill="#00000000" stroke="#00000000" stroke-width="0"></rect><line x1="257.91" y1="81" x2="257.91" y2="420" stroke="#181818" stroke-width="0.50" stroke-dasharray="5,5"></line></g><g><title>ServiceBus</title><rect x="348.21" y="81" width="8" height="339" fill="#00000000" stroke="#00000000" stroke-width="0"></rect><line x1="351.71" y1="81" x2="351.71" y2="420" stroke="#181818" stroke-width="0.50" stroke-dasharray="5,5"></line></g><text x="5" y="78" font-size="14" fill="#000000" xml:space="preserve" style="white-space: pre" font-family="sans-serif">Caller</text><circle cx="26.28" cy="13.50" r="8" fill="#E2E2F0" stroke="#181818" stroke-width="0.50"></circle><path d="M26.28,21.50 L26.28,48.50 M13.28,29.50 L39.28,29.50 M26.28,48.50 L13.28,63.50 M26.28,48.50 L39.28,63.50" fill="#00000000" stroke="#181818" stroke-width="0.50"></path><text x="88.35" y="78" font-size="14" fill="#000000" xml:space="preserve" style="white-space: pre" font-family="sans-serif">Breakfast Provider</text><circle cx="148.93" cy="49" r="12" fill="#E2E2F0" stroke="#181818" stroke-width="0.50"></circle><line x1="136.93" y1="63" x2="160.93" y2="63" stroke="#181818" stroke-width="0.50"></line><text x="219.51" y="78" font-size="14" fill="#000000" xml:space="preserve" style="white-space: pre" font-family="sans-serif">CosmosDB</text><path d="M239.91,29 C239.91,19 257.91,19 257.91,19 C257.91,19 275.91,19 275.91,29 L275.91,55 C275.91,65 257.91,65 257.91,65 C257.91,65 239.91,65 239.91,55 L239.91,29" fill="#E2E2F0" stroke="#181818" stroke-width="0.50"></path><path d="M239.91,29 C239.91,39 257.91,39 257.91,39 C257.91,39 275.91,39 275.91,29" fill="#00000000" stroke="#181818" stroke-width="0.50"></path><path d="M311.30,55 L392.11,55 C397.11,55 397.11,68 397.11,68 C397.11,68 397.11,81 392.11,81 L311.30,81 C306.30,81 306.30,68 306.30,68 C306.30,68 306.30,55 311.30,55" fill="#E2E2F0" stroke="#181818" stroke-width="0.50"></path><path d="M392.11,55 C387.11,55 387.11,68 387.11,68 C387.11,81 392.11,81 392.11,81" fill="#00000000" stroke="#181818" stroke-width="0.50"></path><text x="311.30" y="73" font-size="14" fill="#000000" xml:space="preserve" style="white-space: pre" font-family="sans-serif">ServiceBus</text><text x="5" y="493" font-size="14" fill="#000000" xml:space="preserve" style="white-space: pre" font-family="sans-serif">Caller</text><circle cx="26.28" cy="428.50" r="8" fill="#E2E2F0" stroke="#181818" stroke-width="0.50"></circle><path d="M26.28,436.50 L26.28,463.50 M13.28,444.50 L39.28,444.50 M26.28,463.50 L13.28,478.50 M26.28,463.50 L39.28,478.50" fill="#00000000" stroke="#181818" stroke-width="0.50"></path><text x="88.35" y="465" font-size="14" fill="#000000" xml:space="preserve" style="white-space: pre" font-family="sans-serif">Breakfast Provider</text><circle cx="148.93" cy="436" r="12" fill="#E2E2F0" stroke="#181818" stroke-width="0.50"></circle><line x1="136.93" y1="450" x2="160.93" y2="450" stroke="#181818" stroke-width="0.50"></line><text x="219.51" y="479" font-size="14" fill="#000000" xml:space="preserve" style="white-space: pre" font-family="sans-serif">CosmosDB</text><path d="M239.91,430 C239.91,420 257.91,420 257.91,420 C257.91,420 275.91,420 275.91,430 L275.91,456 C275.91,466 257.91,466 257.91,466 C257.91,466 239.91,466 239.91,456 L239.91,430" fill="#E2E2F0" stroke="#181818" stroke-width="0.50"></path><path d="M239.91,430 C239.91,440 257.91,440 257.91,440 C257.91,440 275.91,440 275.91,430" fill="#00000000" stroke="#181818" stroke-width="0.50"></path><path d="M311.30,420 L392.11,420 C397.11,420 397.11,433 397.11,433 C397.11,433 397.11,446 392.11,446 L311.30,446 C306.30,446 306.30,433 306.30,433 C306.30,433 306.30,420 311.30,420" fill="#E2E2F0" stroke="#181818" stroke-width="0.50"></path><path d="M392.11,420 C387.11,420 387.11,433 387.11,433 C387.11,446 392.11,446 392.11,446" fill="#00000000" stroke="#181818" stroke-width="0.50"></path><text x="311.30" y="438" font-size="14" fill="#000000" xml:space="preserve" style="white-space: pre" font-family="sans-serif">ServiceBus</text><polygon points="7.94,94 369.94,94 379.94,105 369.94,117 7.94,117 -2.06,105 7.94,94" fill="#000000" stroke="#181818" stroke-width="0.50"></polygon><text x="167.68" y="110" font-size="13" fill="#FFFFFF" xml:space="preserve" style="white-space: pre" font-family="sans-serif">Test</text><text x="191.52" y="110" font-size="13" fill="#FFFFFF" xml:space="preserve" style="white-space: pre" font-family="sans-serif"> </text><text x="195.14" y="110" font-size="13" fill="#FFFFFF" xml:space="preserve" style="white-space: pre" font-family="sans-serif">T1</text><text x="202.71" y="138" font-size="13" fill="#000000" xml:space="preserve" style="white-space: pre" font-weight="bold" font-family="sans-serif">Setup</text><rect x="5" y="126" width="431.53" height="149" fill="#00000000" stroke="#000000" stroke-width="1.50"></rect><polygon points="136.93,163 146.93,167 136.93,171 140.93,167" fill="#438DD5" stroke="#438DD5" stroke-width="1"></polygon><line x1="26.28" y1="167" x2="142.93" y2="167" stroke="#438DD5" stroke-width="1"></line><text x="33.28" y="162" font-size="13" fill="#000000" xml:space="preserve" style="white-space: pre" font-weight="bold" font-family="sans-serif">1</text><text x="44.51" y="162" font-size="13" fill="#000000" xml:space="preserve" style="white-space: pre" font-family="sans-serif">GET</text><text x="71.24" y="162" font-size="13" fill="#000000" xml:space="preserve" style="white-space: pre" font-family="sans-serif"> </text><text x="74.85" y="162" font-size="13" fill="#000000" xml:space="preserve" style="white-space: pre" font-family="sans-serif">/breakfast</text><path d="M153.93,151 L153.93,206 L314.93,206 L314.93,161 L304.93,151 L153.93,151" fill="#FEFFDD" stroke="#181818" stroke-width="0.50"></path><path d="M304.93,151 L304.93,161 L314.93,161 L304.93,151" fill="#FEFFDD" stroke="#181818" stroke-width="0.50"></path><text x="159.93" y="168" font-size="13" fill="#808080" xml:space="preserve" style="white-space: pre" font-family="sans-serif">[Full</text><text x="184.49" y="168" font-size="13" fill="#808080" xml:space="preserve" style="white-space: pre" font-family="sans-serif"> </text><text x="188.10" y="168" font-size="13" fill="#808080" xml:space="preserve" style="white-space: pre" font-family="sans-serif">path]</text><text x="159.93" y="183" font-size="13" fill="#808080" xml:space="preserve" style="white-space: pre" font-family="sans-serif">http://localhost/breakfast</text><text x="159.93" y="198" font-size="13" fill="#000000" xml:space="preserve" style="white-space: pre" font-family="sans-serif">{"id":1}</text><polygon points="245.91,228 255.91,232 245.91,236 249.91,232" fill="#E74C3C" stroke="#E74C3C" stroke-width="1"></polygon><line x1="148.93" y1="232" x2="251.91" y2="232" stroke="#E74C3C" stroke-width="1"></line><text x="155.93" y="227" font-size="13" fill="#000000" xml:space="preserve" style="white-space: pre" font-weight="bold" font-family="sans-serif">2</text><text x="167.16" y="227" font-size="13" fill="#000000" xml:space="preserve" style="white-space: pre" font-family="sans-serif">query</text><path d="M262.91,216 L262.91,241 L363.91,241 L363.91,226 L353.91,216 L262.91,216" fill="#FEFFDD" stroke="#181818" stroke-width="0.50"></path><path d="M353.91,216 L353.91,226 L363.91,226 L353.91,216" fill="#FEFFDD" stroke="#181818" stroke-width="0.50"></path><text x="268.91" y="233" font-size="13" fill="#000000" xml:space="preserve" style="white-space: pre" font-family="sans-serif">some</text><text x="300.70" y="233" font-size="13" fill="#000000" xml:space="preserve" style="white-space: pre" font-family="sans-serif"> </text><text x="304.31" y="233" font-size="13" fill="#000000" xml:space="preserve" style="white-space: pre" font-family="sans-serif">payload</text><polygon points="159.93,263 149.93,267 159.93,271 155.93,267" fill="#181818" stroke="#181818" stroke-width="1"></polygon><line x1="153.93" y1="267" x2="256.91" y2="267" stroke="#181818" stroke-width="1" stroke-dasharray="2,2"></line><text x="165.93" y="262" font-size="13" fill="#000000" xml:space="preserve" style="white-space: pre" font-weight="bold" font-family="sans-serif">3</text><text x="177.16" y="262" font-size="13" fill="#000000" xml:space="preserve" style="white-space: pre" font-family="sans-serif">1</text><text x="184.39" y="262" font-size="13" fill="#000000" xml:space="preserve" style="white-space: pre" font-family="sans-serif"> </text><text x="188.00" y="262" font-size="13" fill="#000000" xml:space="preserve" style="white-space: pre" font-family="sans-serif">doc</text><polygon points="339.71,306 349.71,310 339.71,314 343.71,310" fill="#9B59B6" stroke="#9B59B6" stroke-width="1"></polygon><line x1="148.93" y1="310" x2="345.71" y2="310" stroke="#9B59B6" stroke-width="1"></line><text x="155.93" y="305" font-size="13" fill="#000000" xml:space="preserve" style="white-space: pre" font-weight="bold" font-family="sans-serif">4</text><text x="167.16" y="305" font-size="13" fill="#000000" xml:space="preserve" style="white-space: pre" font-family="sans-serif">publish</text><path d="M356.71,299 L356.71,311 A5,5 0 0 0 361.71,316 L425.71,316 A5,5 0 0 0 430.71,311 L430.71,304 L420.71,294 L361.71,294 A5,5 0 0 0 356.71,299" fill="#CFECF7" stroke="#181818" stroke-width="0.50"></path><path d="M420.71,294 L420.71,301.50 A2.50,2.50 0 0 0 423.21,304 L430.71,304 L420.71,294" fill="#CFECF7" stroke="#181818" stroke-width="0.50"></path><text x="362.71" y="309" font-size="11" fill="#000000" xml:space="preserve" style="white-space: pre" font-family="sans-serif">event</text><text x="389.62" y="309" font-size="11" fill="#000000" xml:space="preserve" style="white-space: pre" font-family="sans-serif"> </text><text x="392.67" y="309" font-size="11" fill="#000000" xml:space="preserve" style="white-space: pre" font-family="sans-serif">body</text><polygon points="7.94,326 369.94,326 379.94,336 369.94,346 7.94,346 -2.06,336 7.94,326" fill="#D4EDDA" stroke="#181818" stroke-width="0.50"></polygon><text x="128.32" y="340" font-size="11" fill="#000000" xml:space="preserve" style="white-space: pre" font-family="sans-serif">✓</text><text x="136.56" y="340" font-size="11" fill="#000000" xml:space="preserve" style="white-space: pre" font-family="sans-serif"> </text><text x="139.62" y="340" font-size="11" fill="#000000" xml:space="preserve" style="white-space: pre" font-family="sans-serif">the</text><text x="154.91" y="340" font-size="11" fill="#000000" xml:space="preserve" style="white-space: pre" font-family="sans-serif"> </text><text x="157.96" y="340" font-size="11" fill="#000000" xml:space="preserve" style="white-space: pre" font-family="sans-serif">mock</text><text x="184.24" y="340" font-size="11" fill="#000000" xml:space="preserve" style="white-space: pre" font-family="sans-serif"> </text><text x="187.30" y="340" font-size="11" fill="#000000" xml:space="preserve" style="white-space: pre" font-family="sans-serif">answers</text><text x="228.26" y="340" font-size="11" fill="#000000" xml:space="preserve" style="white-space: pre" font-family="sans-serif"> </text><text x="231.32" y="340" font-size="11" fill="#000000" xml:space="preserve" style="white-space: pre" font-family="sans-serif">200</text><polygon points="7.94,356 369.94,356 379.94,366 369.94,376 7.94,376 -2.06,366 7.94,356" fill="#F8D7DA" stroke="#181818" stroke-width="0.50"></polygon><text x="153.32" y="370" font-size="11" fill="#000000" xml:space="preserve" style="white-space: pre" font-family="sans-serif">✗</text><text x="162.31" y="370" font-size="11" fill="#000000" xml:space="preserve" style="white-space: pre" font-family="sans-serif"> </text><text x="165.36" y="370" font-size="11" fill="#000000" xml:space="preserve" style="white-space: pre" font-family="sans-serif">failed</text><text x="191.66" y="370" font-size="11" fill="#000000" xml:space="preserve" style="white-space: pre" font-family="sans-serif"> </text><text x="194.72" y="370" font-size="11" fill="#000000" xml:space="preserve" style="white-space: pre" font-family="sans-serif">assert</text><polygon points="37.28,398 27.28,402 37.28,406 33.28,402" fill="#181818" stroke="#181818" stroke-width="1"></polygon><line x1="31.28" y1="402" x2="147.93" y2="402" stroke="#181818" stroke-width="1" stroke-dasharray="2,2"></line><text x="43.28" y="397" font-size="13" fill="#000000" xml:space="preserve" style="white-space: pre" font-weight="bold" font-family="sans-serif">5</text><text x="54.51" y="397" font-size="13" fill="#0000FF" xml:space="preserve" style="white-space: pre" text-decoration="underline" font-family="sans-serif">200</text><text x="76.20" y="397" font-size="13" fill="#0000FF" xml:space="preserve" style="white-space: pre" text-decoration="underline" font-family="sans-serif"> </text><text x="79.81" y="397" font-size="13" fill="#0000FF" xml:space="preserve" style="white-space: pre" text-decoration="underline" font-family="sans-serif">OK</text></g></svg>