<svg xmlns="http://www.w3.org/2000/svg" xmlns:xlink="http://www.w3.org/1999/xlink" contentStyleType="text/css" height="580.2083px" preserveAspectRatio="none" style="width:513px;height:580px;" version="1.1" viewBox="0 0 513 580" width="513.5417px" zoomAndPan="magnify"><defs><linearGradient id="ga5tsetn1ityh0" x1="50%" x2="50%" y1="0%" y2="100%"><stop offset="0%" stop-color="#F18E3E"/><stop offset="100%" stop-color="#EC7211"/></linearGradient></defs><g><line style="stroke:#ABB6C2;stroke-width:0.5208333333333334;stroke-dasharray:5.0,5.0;" x1="31.4799" x2="31.4799" y1="93.3167" y2="491.4352"/><line style="stroke:#ABB6C2;stroke-width:0.5208333333333334;stroke-dasharray:5.0,5.0;" x1="184.55" x2="184.55" y1="93.3167" y2="491.4352"/><line style="stroke:#ABB6C2;stroke-width:0.5208333333333334;stroke-dasharray:5.0,5.0;" x1="303.1982" x2="303.1982" y1="93.3167" y2="491.4352"/><line style="stroke:#ABB6C2;stroke-width:0.5208333333333334;stroke-dasharray:5.0,5.0;" x1="405.7678" x2="405.7678" y1="93.3167" y2="491.4352"/><text fill="#4E5D6C" font-family="Verdana" font-size="12.5" lengthAdjust="spacing" textLength="35.8765" x="10.4167" y="85.4838">Caller</text><ellipse cx="31.4799" cy="14.0625" fill="url(#ga5tsetn1ityh0)" rx="8.3333" ry="8.3333" style="stroke:#EC7211;stroke-width:0.5208333333333334;"/><path d="M31.4799,22.3958 L31.4799,50.5208 M17.9382,30.7292 L45.0216,30.7292 M31.4799,50.5208 L17.9382,66.1458 M31.4799,50.5208 L45.0216,66.1458 " fill="none" style="stroke:#EC7211;stroke-width:0.5208333333333334;"/><text fill="#4E5D6C" font-family="Verdana" font-size="12.5" lengthAdjust="spacing" textLength="115.8447" x="123.5026" y="85.4838">Breakfast Provider</text><ellipse cx="184.55" cy="51.0417" fill="url(#ga5tsetn1ityh0)" rx="12.5" ry="12.5" style="stroke:#EC7211;stroke-width:0.5208333333333334;"/><line style="stroke:#EC7211;stroke-width:0.5208333333333334;" x1="172.05" x2="197.05" y1="65.625" y2="65.625"/><text fill="#4E5D6C" font-family="Verdana" font-size="12.5" lengthAdjust="spacing" textLength="67.2852" x="266.4307" y="85.4838">CosmosDB</text><path d="M284.4482,30.2083 C284.4482,19.7917 303.1982,19.7917 303.1982,19.7917 C303.1982,19.7917 321.9482,19.7917 321.9482,30.2083 L321.9482,57.2917 C321.9482,67.7083 303.1982,67.7083 303.1982,67.7083 C303.1982,67.7083 284.4482,67.7083 284.4482,57.2917 L284.4482,30.2083 " fill="url(#ga5tsetn1ityh0)" style="stroke:#EC7211;stroke-width:1.5625;"/><path d="M284.4482,30.2083 C284.4482,40.625 303.1982,40.625 303.1982,40.625 C303.1982,40.625 321.9482,40.625 321.9482,30.2083 " fill="none" style="stroke:#EC7211;stroke-width:1.5625;"/><path d="M360.7992,57.2917 L450.7365,57.2917 C455.9448,57.2917 455.9448,75.3042 455.9448,75.3042 C455.9448,75.3042 455.9448,93.3167 450.7365,93.3167 L360.7992,93.3167 C355.5908,93.3167 355.5908,75.3042 355.5908,75.3042 C355.5908,75.3042 355.5908,57.2917 360.7992,57.2917 " fill="url(#ga5tsetn1ityh0)" style="stroke:#EC7211;stroke-width:0.5208333333333334;"/><path d="M450.7365,57.2917 C445.5282,57.2917 445.5282,75.3042 445.5282,75.3042 C445.5282,93.3167 450.7365,93.3167 450.7365,93.3167 " fill="none" style="stroke:#EC7211;stroke-width:0.5208333333333334;"/><text fill="#FFFFFF" font-family="Verdana" font-size="12.5" lengthAdjust="spacing" textLength="69.104" x="366.0075" y="80.2755">ServiceBus</text><text fill="#4E5D6C" font-family="Verdana" font-size="12.5" lengthAdjust="spacing" textLength="35.8765" x="10.4167" y="571.7107">Caller</text><ellipse cx="31.4799" cy="500.2894" fill="url(#ga5tsetn1ityh0)" rx="8.3333" ry="8.3333" style="stroke:#EC7211;stroke-width:0.5208333333333334;"/><path d="M31.4799,508.6227 L31.4799,536.7477 M17.9382,516.9561 L45.0216,516.9561 M31.4799,536.7477 L17.9382,552.3727 M31.4799,536.7477 L45.0216,552.3727 " fill="none" style="stroke:#EC7211;stroke-width:0.5208333333333334;"/><text fill="#4E5D6C" font-family="Verdana" font-size="12.5" lengthAdjust="spacing" textLength="115.8447" x="123.5026" y="542.544">Breakfast Provider</text><ellipse cx="184.55" cy="508.1019" fill="url(#ga5tsetn1ityh0)" rx="12.5" ry="12.5" style="stroke:#EC7211;stroke-width:0.5208333333333334;"/><line style="stroke:#EC7211;stroke-width:0.5208333333333334;" x1="172.05" x2="197.05" y1="522.6852" y2="522.6852"/><text fill="#4E5D6C" font-family="Verdana" font-size="12.5" lengthAdjust="spacing" textLength="67.2852" x="266.4307" y="557.1274">CosmosDB</text><path d="M284.4482,501.8519 C284.4482,491.4352 303.1982,491.4352 303.1982,491.4352 C303.1982,491.4352 321.9482,491.4352 321.9482,501.8519 L321.9482,528.9352 C321.9482,539.3519 303.1982,539.3519 303.1982,539.3519 C303.1982,539.3519 284.4482,539.3519 284.4482,528.9352 L284.4482,501.8519 " fill="url(#ga5tsetn1ityh0)" style="stroke:#EC7211;stroke-width:1.5625;"/><path d="M284.4482,501.8519 C284.4482,512.2686 303.1982,512.2686 303.1982,512.2686 C303.1982,512.2686 321.9482,512.2686 321.9482,501.8519 " fill="none" style="stroke:#EC7211;stroke-width:1.5625;"/><path d="M360.7992,491.4352 L450.7365,491.4352 C455.9448,491.4352 455.9448,509.4477 455.9448,509.4477 C455.9448,509.4477 455.9448,527.4602 450.7365,527.4602 L360.7992,527.4602 C355.5908,527.4602 355.5908,509.4477 355.5908,509.4477 C355.5908,509.4477 355.5908,491.4352 360.7992,491.4352 " fill="url(#ga5tsetn1ityh0)" style="stroke:#EC7211;stroke-width:0.5208333333333334;"/><path d="M450.7365,491.4352 C445.5282,491.4352 445.5282,509.4477 445.5282,509.4477 C445.5282,527.4602 450.7365,527.4602 450.7365,527.4602 " fill="none" style="stroke:#EC7211;stroke-width:0.5208333333333334;"/><text fill="#FFFFFF" font-family="Verdana" font-size="12.5" lengthAdjust="spacing" textLength="69.104" x="366.0075" y="514.419">ServiceBus</text><polygon fill="#000000" points="8.8806,106.8583,427.6306,106.8583,438.0473,123.525,427.6306,140.1917,8.8806,140.1917,-1.5361,123.525,8.8806,106.8583" style="stroke:#005C96;stroke-width:1.0416666666666667;"/><text fill="#FFFFFF" font-family="Verdana" font-size="12.5" lengthAdjust="spacing" textLength="26.5869" x="195.3084" y="128.8005">Test</text><text fill="#FFFFFF" font-family="Verdana" font-size="12.5" lengthAdjust="spacing" textLength="4.3945" x="221.8953" y="128.8005">&#160;</text><text fill="#FFFFFF" font-family="Verdana" font-size="12.5" lengthAdjust="spacing" textLength="15.6494" x="226.2899" y="128.8005">T1</text><polygon fill="#438DD5" points="172.05,173.7,182.4666,177.8666,172.05,182.0333,176.2166,177.8666" style="stroke:#438DD5;stroke-width:1.0416666666666667;"/><line style="stroke:#438DD5;stroke-width:3.125;" x1="31.4799" x2="178.3" y1="177.8666" y2="177.8666"/><text fill="#4E5D6C" font-family="Verdana" font-size="12.5" font-weight="bold" lengthAdjust="spacing" textLength="8.8867" x="43.9799" y="167.9504">1</text><text fill="#4E5D6C" font-family="Verdana" font-size="12.5" lengthAdjust="spacing" textLength="94.1833" x="67.45" y="167.9504">GET /breakfast</text><path d="M189.7583,155.3833 L189.7583,212.675 A4.1667,4.1667 0 0 0 193.925,216.8416 L379.3416,216.8416 A4.1667,4.1667 0 0 0 383.5083,212.675 L383.5083,161.6333 L373.0916,151.2166 L193.925,151.2166 A4.1667,4.1667 0 0 0 189.7583,155.3833 " fill="#0073BB" style="stroke:#005C96;stroke-width:1.0416666666666667;"/><path d="M373.0916,151.2166 L373.0916,159.55 A2.0833,2.0833 0 0 0 375.175,161.6333 L383.5083,161.6333 L373.0916,151.2166 " fill="#0073BB" style="stroke:#005C96;stroke-width:1.0416666666666667;"/><text fill="#808080" font-family="Verdana" font-size="12.5" lengthAdjust="spacing" textLength="27.6306" x="201.2166" y="174.2004">[Full</text><text fill="#808080" font-family="Verdana" font-size="12.5" lengthAdjust="spacing" textLength="4.3945" x="228.8472" y="174.2004">&#160;</text><text fill="#808080" font-family="Verdana" font-size="12.5" lengthAdjust="spacing" textLength="33.8074" x="233.2418" y="174.2004">path]</text><text fill="#808080" font-family="Verdana" font-size="12.5" lengthAdjust="spacing" textLength="162.4695" x="201.2166" y="189.3921">http://localhost/breakfast</text><text fill="#FFFFFF" font-family="Verdana" font-size="12.5" lengthAdjust="spacing" textLength="52.1851" x="201.2166" y="204.5837">{"id":1}</text><polygon fill="#E74C3C" points="290.6982,250.5249,301.1149,254.6916,290.6982,258.8582,294.8649,254.6916" style="stroke:#E74C3C;stroke-width:1.0416666666666667;"/><line style="stroke:#E74C3C;stroke-width:3.125;" x1="184.55" x2="296.9482" y1="254.6916" y2="254.6916"/><text fill="#4E5D6C" font-family="Verdana" font-size="12.5" font-weight="bold" lengthAdjust="spacing" textLength="8.8867" x="197.05" y="244.7754">2</text><text fill="#4E5D6C" font-family="Verdana" font-size="12.5" lengthAdjust="spacing" textLength="35.8765" x="220.52" y="244.7754">query</text><path d="M308.4066,232.2083 L308.4066,259.2916 A4.1667,4.1667 0 0 0 312.5732,263.4583 L422.9899,263.4583 A4.1667,4.1667 0 0 0 427.1566,259.2916 L427.1566,238.4583 L416.7399,228.0416 L312.5732,228.0416 A4.1667,4.1667 0 0 0 308.4066,232.2083 " fill="#0073BB" style="stroke:#005C96;stroke-width:1.0416666666666667;"/><path d="M416.7399,228.0416 L416.7399,236.3749 A2.0833,2.0833 0 0 0 418.8232,238.4583 L427.1566,238.4583 L416.7399,228.0416 " fill="#0073BB" style="stroke:#005C96;stroke-width:1.0416666666666667;"/><text fill="#FFFFFF" font-family="Verdana" font-size="12.5" lengthAdjust="spacing" textLength="33.7036" x="319.8649" y="251.0254">some</text><text fill="#FFFFFF" font-family="Verdana" font-size="12.5" lengthAdjust="spacing" textLength="4.3945" x="353.5685" y="251.0254">&#160;</text><text fill="#FFFFFF" font-family="Verdana" font-size="12.5" lengthAdjust="spacing" textLength="49.0051" x="357.9631" y="251.0254">payload</text><polygon fill="#EC7211" points="196.0083,296.9666,185.5916,301.1332,196.0083,305.2999,191.8416,301.1332" style="stroke:#EC7211;stroke-width:1.0416666666666667;"/><line style="stroke:#EC7211;stroke-width:3.125;stroke-dasharray:2.0,2.0;" x1="189.7583" x2="302.1566" y1="301.1332" y2="301.1332"/><text fill="#4E5D6C" font-family="Verdana" font-size="12.5" font-weight="bold" lengthAdjust="spacing" textLength="8.8867" x="207.4666" y="291.217">3</text><text fill="#4E5D6C" font-family="Verdana" font-size="12.5" lengthAdjust="spacing" textLength="34.2285" x="230.9367" y="291.217">1 doc</text><polygon fill="#9B59B6" points="393.2678,337.1582,403.6845,341.3249,393.2678,345.4915,397.4345,341.3249" style="stroke:#9B59B6;stroke-width:1.0416666666666667;"/><line style="stroke:#9B59B6;stroke-width:3.125;" x1="184.55" x2="399.5178" y1="341.3249" y2="341.3249"/><text fill="#4E5D6C" font-family="Verdana" font-size="12.5" font-weight="bold" lengthAdjust="spacing" textLength="8.8867" x="197.05" y="331.4087">4</text><text fill="#4E5D6C" font-family="Verdana" font-size="12.5" lengthAdjust="spacing" textLength="44.7693" x="220.52" y="331.4087">publish</text><path d="M410.9762,319.8832 L410.9762,343.8416 A5.2083,5.2083 0 0 0 416.1845,349.0499 L501.6012,349.0499 A5.2083,5.2083 0 0 0 506.8095,343.8416 L506.8095,325.0916 L496.3928,314.6749 L416.1845,314.6749 A5.2083,5.2083 0 0 0 410.9762,319.8832 " fill="#0073BB" style="stroke:#005C96;stroke-width:1.0416666666666667;"/><path d="M496.3928,314.6749 L496.3928,322.4874 A2.6042,2.6042 0 0 0 498.997,325.0916 L506.8095,325.0916 L496.3928,314.6749 " fill="#0073BB" style="stroke:#005C96;stroke-width:1.0416666666666667;"/><text fill="#FFFFFF" font-family="Verdana" font-size="11.4583" lengthAdjust="spacing" textLength="32.1986" x="422.4345" y="336.6114">event</text><text fill="#FFFFFF" font-family="Verdana" font-size="11.4583" lengthAdjust="spacing" textLength="4.0283" x="454.6331" y="336.6114">&#160;</text><text fill="#FFFFFF" font-family="Verdana" font-size="11.4583" lengthAdjust="spacing" textLength="28.0136" x="458.6614" y="336.6114">body</text><polygon fill="#D4EDDA" points="8.8806,359.8506,427.6306,359.8506,438.0473,375.4756,427.6306,392.1422,8.8806,392.1422,-1.5361,375.4756,8.8806,359.8506" style="stroke:#005C96;stroke-width:1.0416666666666667;"/><text fill="#FFFFFF" font-family="Verdana" font-size="11.4583" lengthAdjust="spacing" textLength="11.4583" x="145.6078" y="380.7454">&#10003;</text><text fill="#FFFFFF" font-family="Verdana" font-size="11.4583" lengthAdjust="spacing" textLength="4.0283" x="157.0661" y="380.7454">&#160;</text><text fill="#FFFFFF" font-family="Verdana" font-size="11.4583" lengthAdjust="spacing" textLength="18.5918" x="161.0944" y="380.7454">the</text><text fill="#FFFFFF" font-family="Verdana" font-size="11.4583" lengthAdjust="spacing" textLength="4.0283" x="179.6862" y="380.7454">&#160;</text><text fill="#FFFFFF" font-family="Verdana" font-size="11.4583" lengthAdjust="spacing" textLength="30.8502" x="183.7145" y="380.7454">mock</text><text fill="#FFFFFF" font-family="Verdana" font-size="11.4583" lengthAdjust="spacing" textLength="4.0283" x="214.5648" y="380.7454">&#160;</text><text fill="#FFFFFF" font-family="Verdana" font-size="11.4583" lengthAdjust="spacing" textLength="47.1649" x="218.5931" y="380.7454">answers</text><text fill="#FFFFFF" font-family="Verdana" font-size="11.4583" lengthAdjust="spacing" textLength="4.0283" x="265.758" y="380.7454">&#160;</text><text fill="#FFFFFF" font-family="Verdana" font-size="11.4583" lengthAdjust="spacing" textLength="21.8536" x="269.7863" y="380.7454">200</text><polygon fill="#F8D7DA" points="8.8806,402.9429,427.6306,402.9429,438.0473,418.5679,427.6306,435.2346,8.8806,435.2346,-1.5361,418.5679,8.8806,402.9429" style="stroke:#005C96;stroke-width:1.0416666666666667;"/><text fill="#FFFFFF" font-family="Verdana" font-size="11.4583" lengthAdjust="spacing" textLength="11.4583" x="175.7586" y="423.8378">&#10007;</text><text fill="#FFFFFF" font-family="Verdana" font-size="11.4583" lengthAdjust="spacing" textLength="4.0283" x="187.2169" y="423.8378">&#160;</text><text fill="#FFFFFF" font-family="Verdana" font-size="11.4583" lengthAdjust="spacing" textLength="31.1635" x="191.2453" y="423.8378">failed</text><text fill="#FFFFFF" font-family="Verdana" font-size="11.4583" lengthAdjust="spacing" textLength="4.0283" x="222.4088" y="423.8378">&#160;</text><text fill="#FFFFFF" font-family="Verdana" font-size="11.4583" lengthAdjust="spacing" textLength="35.052" x="226.4371" y="423.8378">assert</text><polygon fill="#EC7211" points="42.9382,468.5186,32.5216,472.6852,42.9382,476.8519,38.7716,472.6852" style="stroke:#EC7211;stroke-width:1.0416666666666667;"/><line style="stroke:#EC7211;stroke-width:3.125;stroke-dasharray:2.0,2.0;" x1="36.6882" x2="183.5083" y1="472.6852" y2="472.6852"/><text fill="#4E5D6C" font-family="Verdana" font-size="12.5" font-weight="bold" lengthAdjust="spacing" textLength="8.8867" x="54.3966" y="462.7691">5</text><a href="https://example.com/x" target="_top" title="https://example.com/x" xlink:actuate="onRequest" xlink:href="https://example.com/x" xlink:show="new" xlink:title="https://example.com/x" xlink:type="simple"><text fill="#0000FF" font-family="Verdana" font-size="12.5" lengthAdjust="spacing" text-decoration="underline" textLength="46.7346" x="77.8666" y="462.7691">200 OK</text></a></g></svg>