<svg xmlns="http://www.w3.org/2000/svg" xmlns:xlink="http://www.w3.org/1999/xlink" contentStyleType="text/css" height="509.375px" preserveAspectRatio="none" style="width:463px;height:509px;background:#FDF6E3;" version="1.1" viewBox="0 0 463 509" width="463.5417px" zoomAndPan="magnify"><defs/><g><rect fill="#FDF6E3" height="509.375" style="stroke:none;stroke-width:1.0416666666666667;" width="463.5417" x="0" y="0"/><line style="stroke:#B58900;stroke-width:0.5208333333333334;stroke-dasharray:5.0,5.0;" x1="35.4167" x2="35.4167" y1="90.2181" y2="419.3522"/><line style="stroke:#B58900;stroke-width:0.5208333333333334;stroke-dasharray:5.0,5.0;" x1="163.177" x2="163.177" y1="90.2181" y2="419.3522"/><line style="stroke:#B58900;stroke-width:0.5208333333333334;stroke-dasharray:5.0,5.0;" x1="276.6932" x2="276.6932" y1="90.2181" y2="419.3522"/><line style="stroke:#B58900;stroke-width:0.5208333333333334;stroke-dasharray:5.0,5.0;" x1="374.4013" x2="374.4013" y1="90.2181" y2="419.3522"/><text fill="#000000" font-family="Dejavu Serif" font-size="14.5833" lengthAdjust="spacing" textLength="38.089" x="13.2472" y="87.0138">Caller</text><ellipse cx="35.4167" cy="23.9583" fill="#FFFFCC" rx="16.6667" ry="16.6667" style="stroke:#B58900;stroke-width:2.0833333333333335;"/><path d="M35.4167,44.7917 C39.5833,44.7917 42.7083,44.7917 46.875,40.625 C55.2083,40.625 63.5417,48.9583 63.5417,57.2917 L63.5417,61.4583 C63.5417,65.625 59.375,69.7917 55.2083,69.7917 L15.625,69.7917 C11.4583,69.7917 7.2917,65.625 7.2917,61.4583 L7.2917,57.2917 C7.2917,48.9583 15.625,40.625 23.9583,40.625 C28.125,44.7917 31.25,44.7917 35.4167,44.7917 " fill="#FFFFCC" style="stroke:#B58900;stroke-width:2.0833333333333335;"/><text fill="#000000" font-family="Dejavu Serif" font-size="14.5833" lengthAdjust="spacing" textLength="119.9565" x="100.0738" y="87.0138">Breakfast Provider</text><ellipse cx="163.177" cy="55.2083" fill="#FFFFCC" rx="12.5" ry="12.5" style="stroke:#B58900;stroke-width:2.0833333333333335;"/><line style="stroke:#B58900;stroke-width:2.0833333333333335;" x1="150.677" x2="175.677" y1="69.7917" y2="69.7917"/><text fill="#000000" font-family="Dejavu Serif" font-size="14.5833" lengthAdjust="spacing" textLength="73.7427" x="236.6969" y="87.0138">CosmosDB</text><path d="M257.9432,34.375 C257.9432,23.9583 276.6932,23.9583 276.6932,23.9583 C276.6932,23.9583 295.4432,23.9583 295.4432,34.375 L295.4432,61.4583 C295.4432,71.875 276.6932,71.875 276.6932,71.875 C276.6932,71.875 257.9432,71.875 257.9432,61.4583 L257.9432,34.375 " fill="#EFEFFF" style="stroke:#6C71C4;stroke-width:1.5625;"/><path d="M257.9432,34.375 C257.9432,44.7917 276.6932,44.7917 276.6932,44.7917 C276.6932,44.7917 295.4432,44.7917 295.4432,34.375 " fill="none" style="stroke:#6C71C4;stroke-width:1.5625;"/><path d="M332.3146,61.4583 L416.4881,61.4583 C421.6965,61.4583 421.6965,75.8382 421.6965,75.8382 C421.6965,75.8382 421.6965,90.2181 416.4881,90.2181 L332.3146,90.2181 C327.1062,90.2181 327.1062,75.8382 327.1062,75.8382 C327.1062,75.8382 327.1062,61.4583 332.3146,61.4583 " fill="#EFEFFF" style="stroke:#6C71C4;stroke-width:2.0833333333333335;"/><path d="M416.4881,61.4583 C411.2798,61.4583 411.2798,75.8382 411.2798,75.8382 C411.2798,90.2181 416.4881,90.2181 416.4881,90.2181 " fill="none" style="stroke:#6C71C4;stroke-width:2.0833333333333335;"/><text fill="#000000" font-family="Dejavu Serif" font-size="14.5833" lengthAdjust="spacing" textLength="73.7569" x="332.3146" y="81.8054">ServiceBus</text><text fill="#000000" font-family="Dejavu Serif" font-size="14.5833" lengthAdjust="spacing" textLength="38.089" x="13.2472" y="501.1576">Caller</text><ellipse cx="35.4167" cy="438.1022" fill="#FFFFCC" rx="16.6667" ry="16.6667" style="stroke:#B58900;stroke-width:2.0833333333333335;"/><path d="M35.4167,458.9355 C39.5833,458.9355 42.7083,458.9355 46.875,454.7689 C55.2083,454.7689 63.5417,463.1022 63.5417,471.4355 L63.5417,475.6022 C63.5417,479.7689 59.375,483.9355 55.2083,483.9355 L15.625,483.9355 C11.4583,483.9355 7.2917,479.7689 7.2917,475.6022 L7.2917,471.4355 C7.2917,463.1022 15.625,454.7689 23.9583,454.7689 C28.125,458.9355 31.25,458.9355 35.4167,458.9355 " fill="#FFFFCC" style="stroke:#B58900;stroke-width:2.0833333333333335;"/><text fill="#000000" font-family="Dejavu Serif" font-size="14.5833" lengthAdjust="spacing" textLength="119.9565" x="100.0738" y="467.8243">Breakfast Provider</text><ellipse cx="163.177" cy="436.0189" fill="#FFFFCC" rx="12.5" ry="12.5" style="stroke:#B58900;stroke-width:2.0833333333333335;"/><line style="stroke:#B58900;stroke-width:2.0833333333333335;" x1="150.677" x2="175.677" y1="450.6022" y2="450.6022"/><text fill="#000000" font-family="Dejavu Serif" font-size="14.5833" lengthAdjust="spacing" textLength="73.7427" x="236.6969" y="482.4076">CosmosDB</text><path d="M257.9432,429.7689 C257.9432,419.3522 276.6932,419.3522 276.6932,419.3522 C276.6932,419.3522 295.4432,419.3522 295.4432,429.7689 L295.4432,456.8522 C295.4432,467.2689 276.6932,467.2689 276.6932,467.2689 C276.6932,467.2689 257.9432,467.2689 257.9432,456.8522 L257.9432,429.7689 " fill="#EFEFFF" style="stroke:#6C71C4;stroke-width:1.5625;"/><path d="M257.9432,429.7689 C257.9432,440.1855 276.6932,440.1855 276.6932,440.1855 C276.6932,440.1855 295.4432,440.1855 295.4432,429.7689 " fill="none" style="stroke:#6C71C4;stroke-width:1.5625;"/><path d="M332.3146,419.3522 L416.4881,419.3522 C421.6965,419.3522 421.6965,433.7321 421.6965,433.7321 C421.6965,433.7321 421.6965,448.112 416.4881,448.112 L332.3146,448.112 C327.1062,448.112 327.1062,433.7321 327.1062,433.7321 C327.1062,433.7321 327.1062,419.3522 332.3146,419.3522 " fill="#EFEFFF" style="stroke:#6C71C4;stroke-width:2.0833333333333335;"/><path d="M416.4881,419.3522 C411.2798,419.3522 411.2798,433.7321 411.2798,433.7321 C411.2798,448.112 416.4881,448.112 416.4881,448.112 " fill="none" style="stroke:#6C71C4;stroke-width:2.0833333333333335;"/><text fill="#000000" font-family="Dejavu Serif" font-size="14.5833" lengthAdjust="spacing" textLength="73.7569" x="332.3146" y="439.6993">ServiceBus</text><polygon fill="#000000" points="12.2899,103.7598,396.6649,103.7598,407.0816,116.2598,396.6649,128.7598,12.2899,128.7598,1.8733,116.2598,12.2899,103.7598" style="stroke:#B58900;stroke-width:2.0833333333333335;"/><text fill="#FFFFFF" font-family="Dejavu Serif" font-size="13.5417" lengthAdjust="spacing" textLength="26.3362" x="181.9583" y="121.9838">Test</text><text fill="#FFFFFF" font-family="Dejavu Serif" font-size="13.5417" lengthAdjust="spacing" textLength="3.7623" x="208.2944" y="121.9838">&#160;</text><text fill="#FFFFFF" font-family="Dejavu Serif" font-size="13.5417" lengthAdjust="spacing" textLength="15.803" x="212.0567" y="121.9838">T1</text><polygon fill="#438DD5" points="150.677,153.4505,161.0936,157.6172,150.677,161.7839,154.8436,157.6172" style="stroke:#438DD5;stroke-width:1.0416666666666667;"/><line style="stroke:#438DD5;stroke-width:2.0833333333333335;" x1="35.4167" x2="156.927" y1="157.6172" y2="157.6172"/><text fill="#000000" font-family="Dejavu Serif" font-size="13.5417" font-weight="bold" lengthAdjust="spacing" textLength="7.5312" x="42.7083" y="152.5584">1</text><text fill="#000000" font-family="Dejavu Serif" font-size="13.5417" lengthAdjust="spacing" textLength="91.0624" x="54.4062" y="152.5584">GET /breakfast</text><path d="M168.3853,147.3551 L168.3853,193.1885 A7.8125,7.8125 0 0 0 176.1978,201.001 L328.2811,201.001 A7.8125,7.8125 0 0 0 336.0936,193.1885 L336.0936,149.9593 L325.677,139.5426 L176.1978,139.5426 A7.8125,7.8125 0 0 0 168.3853,147.3551 " fill="#FFFFCC" style="stroke:#B58900;stroke-width:2.0833333333333335;"/><path d="M325.677,139.5426 L325.677,146.0531 A3.9063,3.9063 0 0 0 329.5832,149.9593 L336.0936,149.9593 L325.677,139.5426 " fill="#FFFFCC" style="stroke:#B58900;stroke-width:2.0833333333333335;"/><text fill="#808080" font-family="Dejavu Serif" font-size="13.5417" lengthAdjust="spacing" textLength="25.5824" x="218.2953" y="158.8084">[Full</text><text fill="#808080" font-family="Dejavu Serif" font-size="13.5417" lengthAdjust="spacing" textLength="3.7623" x="243.8777" y="158.8084">&#160;</text><text fill="#808080" font-family="Dejavu Serif" font-size="13.5417" lengthAdjust="spacing" textLength="30.1183" x="247.64" y="158.8084">path]</text><text fill="#808080" font-family="Dejavu Serif" font-size="13.5417" lengthAdjust="spacing" textLength="146.7829" x="174.6353" y="175.8413">http://localhost/breakfast</text><text fill="#000000" font-family="Dejavu Serif" font-size="13.5417" lengthAdjust="spacing" textLength="40.4928" x="227.7804" y="192.8741">{"id":1}</text><polygon fill="#E74C3C" points="264.1932,225.3825,274.6099,229.5492,264.1932,233.7158,268.3599,229.5492" style="stroke:#E74C3C;stroke-width:1.0416666666666667;"/><line style="stroke:#E74C3C;stroke-width:2.0833333333333335;" x1="163.177" x2="270.4432" y1="229.5492" y2="229.5492"/><text fill="#000000" font-family="Dejavu Serif" font-size="13.5417" font-weight="bold" lengthAdjust="spacing" textLength="7.5312" x="170.4686" y="224.4904">2</text><text fill="#000000" font-family="Dejavu Serif" font-size="13.5417" lengthAdjust="spacing" textLength="33.874" x="182.1665" y="224.4904">query</text><path d="M281.9016,219.2871 L281.9016,230.7454 A7.8125,7.8125 0 0 0 289.7141,238.5579 L379.2974,238.5579 A7.8125,7.8125 0 0 0 387.1099,230.7454 L387.1099,221.8913 L376.6932,211.4746 L289.7141,211.4746 A7.8125,7.8125 0 0 0 281.9016,219.2871 " fill="#FFFFCC" style="stroke:#B58900;stroke-width:2.0833333333333335;"/><path d="M376.6932,211.4746 L376.6932,217.985 A3.9063,3.9063 0 0 0 380.5995,221.8913 L387.1099,221.8913 L376.6932,211.4746 " fill="#FFFFCC" style="stroke:#B58900;stroke-width:2.0833333333333335;"/><text fill="#000000" font-family="Dejavu Serif" font-size="13.5417" lengthAdjust="spacing" textLength="33.1136" x="288.1516" y="230.7404">some</text><text fill="#000000" font-family="Dejavu Serif" font-size="13.5417" lengthAdjust="spacing" textLength="3.7623" x="321.2652" y="230.7404">&#160;</text><text fill="#000000" font-family="Dejavu Serif" font-size="13.5417" lengthAdjust="spacing" textLength="47.4355" x="325.0275" y="230.7404">payload</text><polygon fill="#657B83" points="174.6353,263.2487,164.2186,267.4154,174.6353,271.582,170.4686,267.4154" style="stroke:#657B83;stroke-width:1.0416666666666667;"/><line style="stroke:#657B83;stroke-width:2.0833333333333335;stroke-dasharray:2.0,2.0;" x1="168.3853" x2="275.6516" y1="267.4154" y2="267.4154"/><text fill="#000000" font-family="Dejavu Serif" font-size="13.5417" font-weight="bold" lengthAdjust="spacing" textLength="7.5312" x="224.5768" y="262.3566">3</text><text fill="#000000" font-family="Dejavu Serif" font-size="13.5417" lengthAdjust="spacing" textLength="33.1268" x="236.2747" y="262.3566">1 doc</text><polygon fill="#9B59B6" points="361.9013,294.8649,372.318,299.0316,361.9013,303.1982,366.068,299.0316" style="stroke:#9B59B6;stroke-width:1.0416666666666667;"/><line style="stroke:#9B59B6;stroke-width:2.0833333333333335;" x1="163.177" x2="368.1513" y1="299.0316" y2="299.0316"/><text fill="#000000" font-family="Dejavu Serif" font-size="13.5417" font-weight="bold" lengthAdjust="spacing" textLength="7.5312" x="170.4686" y="293.9728">4</text><text fill="#000000" font-family="Dejavu Serif" font-size="13.5417" lengthAdjust="spacing" textLength="42.9128" x="182.1665" y="293.9728">publish</text><path d="M379.6097,286.1654 L379.6097,299.707 A5.2083,5.2083 0 0 0 384.818,304.9154 L451.4847,304.9154 A5.2083,5.2083 0 0 0 456.693,299.707 L456.693,291.3737 L446.2763,280.957 L384.818,280.957 A5.2083,5.2083 0 0 0 379.6097,286.1654 " fill="#FFFFCC" style="stroke:#B58900;stroke-width:2.0833333333333335;"/><path d="M446.2763,280.957 L446.2763,288.7695 A2.6042,2.6042 0 0 0 448.8805,291.3737 L456.693,291.3737 L446.2763,280.957 " fill="#FFFFCC" style="stroke:#B58900;stroke-width:2.0833333333333335;"/><text fill="#000000" font-family="Dejavu Serif" font-size="11.4583" lengthAdjust="spacing" textLength="28.0304" x="385.8597" y="298.0601">event</text><text fill="#000000" font-family="Dejavu Serif" font-size="11.4583" lengthAdjust="spacing" textLength="3.1835" x="413.8901" y="298.0601">&#160;</text><text fill="#000000" font-family="Dejavu Serif" font-size="11.4583" lengthAdjust="spacing" textLength="24.8469" x="417.0736" y="298.0601">body</text><polygon fill="#D4EDDA" points="12.2899,316.2028,396.6649,316.2028,407.0816,326.6195,396.6649,338.0778,12.2899,338.0778,1.8733,326.6195,12.2899,316.2028" style="stroke:#B58900;stroke-width:2.0833333333333335;"/><text fill="#000000" font-family="Dejavu Serif" font-size="11.4583" lengthAdjust="spacing" textLength="8.5826" x="141.7063" y="332.2642">&#10003;</text><text fill="#000000" font-family="Dejavu Serif" font-size="11.4583" lengthAdjust="spacing" textLength="3.1835" x="150.2889" y="332.2642">&#160;</text><text fill="#000000" font-family="Dejavu Serif" font-size="11.4583" lengthAdjust="spacing" textLength="15.9286" x="153.4724" y="332.2642">the</text><text fill="#000000" font-family="Dejavu Serif" font-size="11.4583" lengthAdjust="spacing" textLength="3.1835" x="169.401" y="332.2642">&#160;</text><text fill="#000000" font-family="Dejavu Serif" font-size="11.4583" lengthAdjust="spacing" textLength="27.3758" x="172.5845" y="332.2642">mock</text><text fill="#000000" font-family="Dejavu Serif" font-size="11.4583" lengthAdjust="spacing" textLength="3.1835" x="199.9603" y="332.2642">&#160;</text><text fill="#000000" font-family="Dejavu Serif" font-size="11.4583" lengthAdjust="spacing" textLength="42.6666" x="203.1438" y="332.2642">answers</text><text fill="#000000" font-family="Dejavu Serif" font-size="11.4583" lengthAdjust="spacing" textLength="3.1835" x="245.8104" y="332.2642">&#160;</text><text fill="#000000" font-family="Dejavu Serif" font-size="11.4583" lengthAdjust="spacing" textLength="19.1177" x="248.9939" y="332.2642">200</text><polygon fill="#F8D7DA" points="12.2899,349.3652,396.6649,349.3652,407.0816,359.7819,396.6649,371.2402,12.2899,371.2402,1.8733,359.7819,12.2899,349.3652" style="stroke:#B58900;stroke-width:2.0833333333333335;"/><text fill="#000000" font-family="Dejavu Serif" font-size="11.4583" lengthAdjust="spacing" textLength="9.3602" x="167.7478" y="365.4266">&#10007;</text><text fill="#000000" font-family="Dejavu Serif" font-size="11.4583" lengthAdjust="spacing" textLength="3.1835" x="177.108" y="365.4266">&#160;</text><text fill="#000000" font-family="Dejavu Serif" font-size="11.4583" lengthAdjust="spacing" textLength="27.3926" x="180.2915" y="365.4266">failed</text><text fill="#000000" font-family="Dejavu Serif" font-size="11.4583" lengthAdjust="spacing" textLength="3.1835" x="207.6841" y="365.4266">&#160;</text><text fill="#000000" font-family="Dejavu Serif" font-size="11.4583" lengthAdjust="spacing" textLength="31.2027" x="210.8676" y="365.4266">assert</text><polygon fill="#657B83" points="46.875,396.4355,36.4583,400.6022,46.875,404.7689,42.7083,400.6022" style="stroke:#657B83;stroke-width:1.0416666666666667;"/><line style="stroke:#657B83;stroke-width:2.0833333333333335;stroke-dasharray:2.0,2.0;" x1="40.625" x2="162.1353" y1="400.6022" y2="400.6022"/><text fill="#000000" font-family="Dejavu Serif" font-size="13.5417" font-weight="bold" lengthAdjust="spacing" textLength="7.5312" x="98.2661" y="395.5434">5</text><a href="https://example.com/x" target="_top" title="https://example.com/x" xlink:actuate="onRequest" xlink:href="https://example.com/x" xlink:show="new" xlink:title="https://example.com/x" xlink:type="simple"><text fill="#0000FF" font-family="Dejavu Serif" font-size="13.5417" lengthAdjust="spacing" text-decoration="underline" textLength="45.9213" x="109.964" y="395.5434">200 OK</text></a></g></svg>