<svg xmlns="http://www.w3.org/2000/svg" version="1.1" viewBox="0 0 322 272" width="322" height="272"><defs></defs><g><g><title>Caller</title><rect x="19.16" y="79" width="8" height="114" fill="#00000000" stroke="#00000000" stroke-width="0"></rect><line x1="22.66" y1="79" x2="22.66" y2="193" stroke="#C6C6C6" stroke-width="0.50" stroke-dasharray="5,5"></line></g><g><title>Breakfast Provider</title><rect x="116.46" y="79" width="8" height="114" fill="#00000000" stroke="#00000000" stroke-width="0"></rect><line x1="119.96" y1="79" x2="119.96" y2="193" stroke="#C6C6C6" stroke-width="0.50" stroke-dasharray="5,5"></line></g><g><title>ServiceBus</title><rect x="211.95" y="79" width="8" height="114" fill="#00000000" stroke="#00000000" stroke-width="0"></rect><line x1="215.45" y1="79" x2="215.45" y2="193" stroke="#C6C6C6" stroke-width="0.50" stroke-dasharray="5,5"></line></g><text x="5" y="76" font-size="12" fill="#262626" xml:space="preserve" style="white-space: pre" font-family="'IBM Plex Sans, Noto Sans, Verdana'">Caller</text><circle cx="22.66" cy="13.50" r="8" fill="#F4F4F4" stroke="#C6C6C6" stroke-width="0.50"></circle><path d="M22.66,21.50 L22.66,48.50 M9.66,29.50 L35.66,29.50 M22.66,48.50 L9.66,63.50 M22.66,48.50 L35.66,63.50" fill="#00000000" stroke="#C6C6C6" stroke-width="0.50"></path><text x="71.81" y="76" font-size="12" fill="#262626" xml:space="preserve" style="white-space: pre" font-family="'IBM Plex Sans, Noto Sans, Verdana'">Breakfast Provider</text><circle cx="119.96" cy="49" r="12" fill="#F4F4F4" stroke="#C6C6C6" stroke-width="0.50"></circle><line x1="107.96" y1="63" x2="131.96" y2="63" stroke="#C6C6C6" stroke-width="0.50"></line><path d="M183.12,55 L247.77,55 C252.77,55 252.77,67 252.77,67 C252.77,67 252.77,79 247.77,79 L183.12,79 C178.12,79 178.12,67 178.12,67 C178.12,67 178.12,55 183.12,55" fill="#F4F4F4" stroke="#C6C6C6" stroke-width="0.50"></path><path d="M247.77,55 C242.77,55 242.77,67 242.77,67 C242.77,79 247.77,79 247.77,79" fill="#00000000" stroke="#C6C6C6" stroke-width="0.50"></path><text x="183.12" y="71" font-size="12" fill="#262626" xml:space="preserve" style="white-space: pre" font-family="'IBM Plex Sans, Noto Sans, Verdana'">ServiceBus</text><text x="5" y="264" font-size="12" fill="#262626" xml:space="preserve" style="white-space: pre" font-family="'IBM Plex Sans, Noto Sans, Verdana'">Caller</text><circle cx="22.66" cy="201.50" r="8" fill="#F4F4F4" stroke="#C6C6C6" stroke-width="0.50"></circle><path d="M22.66,209.50 L22.66,236.50 M9.66,217.50 L35.66,217.50 M22.66,236.50 L9.66,251.50 M22.66,236.50 L35.66,251.50" fill="#00000000" stroke="#C6C6C6" stroke-width="0.50"></path><text x="71.81" y="236" font-size="12" fill="#262626" xml:space="preserve" style="white-space: pre" font-family="'IBM Plex Sans, Noto Sans, Verdana'">Breakfast Provider</text><circle cx="119.96" cy="209" r="12" fill="#F4F4F4" stroke="#C6C6C6" stroke-width="0.50"></circle><line x1="107.96" y1="223" x2="131.96" y2="223" stroke="#C6C6C6" stroke-width="0.50"></line><path d="M183.12,193 L247.77,193 C252.77,193 252.77,205 252.77,205 C252.77,205 252.77,217 247.77,217 L183.12,217 C178.12,217 178.12,205 178.12,205 C178.12,205 178.12,193 183.12,193" fill="#F4F4F4" stroke="#C6C6C6" stroke-width="0.50"></path><path d="M247.77,193 C242.77,193 242.77,205 242.77,205 C242.77,217 247.77,217 247.77,217" fill="#00000000" stroke="#C6C6C6" stroke-width="0.50"></path><text x="183.12" y="209" font-size="12" fill="#262626" xml:space="preserve" style="white-space: pre" font-family="'IBM Plex Sans, Noto Sans, Verdana'">ServiceBus</text><polygon points="107.96,103 117.96,107 107.96,111 111.96,107" fill="#C6C6C6" stroke="#C6C6C6" stroke-width="1"></polygon><line x1="22.66" y1="107" x2="113.96" y2="107" stroke="#C6C6C6" stroke-width="1"></line><text x="29.66" y="102" font-size="12" fill="#262626" xml:space="preserve" style="white-space: pre" font-weight="bold" font-family="'IBM Plex Sans, Noto Sans, Verdana'">1</text><text x="39.66" y="102" font-size="12" fill="#262626" xml:space="preserve" style="white-space: pre" font-family="'IBM Plex Sans, Noto Sans, Verdana'">GetBreakfast</text><path d="M124.96,92 L124.96,116 L222.96,116 L222.96,102 L212.96,92 L124.96,92" fill="#FFFFFF" stroke="#262626" stroke-width="1"></path><path d="M212.96,92 L212.96,102 L222.96,102 L212.96,92" fill="#FFFFFF" stroke="#262626" stroke-width="1"></path><text x="130.96" y="108" font-size="12" fill="#262626" xml:space="preserve" style="white-space: pre" font-family="'IBM Plex Sans, Noto Sans, Verdana'">NoteBodyProbe</text><polygon points="203.45,137 213.45,141 203.45,145 207.45,141" fill="#C6C6C6" stroke="#C6C6C6" stroke-width="1"></polygon><line x1="119.96" y1="141" x2="209.45" y2="141" stroke="#C6C6C6" stroke-width="1"></line><text x="126.96" y="136" font-size="12" fill="#262626" xml:space="preserve" style="white-space: pre" font-weight="bold" font-family="'IBM Plex Sans, Noto Sans, Verdana'">2</text><text x="136.96" y="136" font-size="12" fill="#262626" xml:space="preserve" style="white-space: pre" font-family="'IBM Plex Sans, Noto Sans, Verdana'">publish</text><path d="M220.45,126 L220.45,150 L311.45,150 L311.45,136 L301.45,126 L220.45,126" fill="#FFFFFF" stroke="#262626" stroke-width="1"></path><path d="M301.45,126 L301.45,136 L311.45,136 L301.45,126" fill="#FFFFFF" stroke="#262626" stroke-width="1"></path><text x="226.45" y="142" font-size="12" fill="#262626" xml:space="preserve" style="white-space: pre" font-family="'IBM Plex Sans, Noto Sans, Verdana'">NoteBodyTwo</text><polygon points="33.66,171 23.66,175 33.66,179 29.66,175" fill="#C6C6C6" stroke="#C6C6C6" stroke-width="1"></polygon><line x1="27.66" y1="175" x2="118.96" y2="175" stroke="#C6C6C6" stroke-width="1" stroke-dasharray="2,2"></line><text x="39.66" y="170" font-size="12" fill="#262626" xml:space="preserve" style="white-space: pre" font-weight="bold" font-family="'IBM Plex Sans, Noto Sans, Verdana'">3</text><text x="49.66" y="170" font-size="12" fill="#0000FF" xml:space="preserve" style="white-space: pre" text-decoration="underline" font-family="'IBM Plex Sans, Noto Sans, Verdana'">LinkProbe</text></g></svg>