<svg xmlns="http://www.w3.org/2000/svg" version="1.1" viewBox="0 0 347 267" width="347" height="267"><defs></defs><g><g><title>Caller</title><rect x="20.29" y="78" width="8" height="111" fill="#00000000" stroke="#00000000" stroke-width="0"></rect><line x1="23.79" y1="78" x2="23.79" y2="189" stroke="#CC0033" stroke-width="0.50" stroke-dasharray="5,5"></line></g><g><title>Breakfast Provider</title><rect x="127.97" y="78" width="8" height="111" fill="#00000000" stroke="#00000000" stroke-width="0"></rect><line x1="131.47" y1="78" x2="131.47" y2="189" stroke="#CC0033" stroke-width="0.50" stroke-dasharray="5,5"></line></g><g><title>ServiceBus</title><rect x="232.30" y="78" width="8" height="111" fill="#00000000" stroke="#00000000" stroke-width="0"></rect><line x1="235.80" y1="78" x2="235.80" y2="189" stroke="#CC0033" stroke-width="0.50" stroke-dasharray="5,5"></line></g><text x="5" y="76" font-size="11" fill="#000000" xml:space="preserve" style="white-space: pre" font-family="Verdana">Caller</text><circle cx="23.79" cy="13.50" r="8" fill="#CC0033" stroke="#AA0033" stroke-width="0.50"></circle><path d="M23.79,21.50 L23.79,48.50 M10.79,29.50 L36.79,29.50 M23.79,48.50 L10.79,63.50 M23.79,48.50 L36.79,63.50" fill="#00000000" stroke="#AA0033" stroke-width="0.50"></path><text x="77.53" y="76" font-size="11" fill="#000000" xml:space="preserve" style="white-space: pre" font-family="Verdana">Breakfast Provider</text><circle cx="131.47" cy="49" r="12" fill="#CC0033" stroke="#AA0033" stroke-width="0.50"></circle><line x1="119.47" y1="63" x2="143.47" y2="63" stroke="#AA0033" stroke-width="0.50"></line><path d="M200.40,55 L271.21,55 C276.21,55 276.21,66.50 276.21,66.50 C276.21,66.50 276.21,78 271.21,78 L200.40,78 C195.40,78 195.40,66.50 195.40,66.50 C195.40,66.50 195.40,55 200.40,55" fill="#CCCCCC" stroke="#AAAAAA" stroke-width="0.50"></path><path d="M271.21,55 C266.21,55 266.21,66.50 266.21,66.50 C266.21,78 271.21,78 271.21,78" fill="#00000000" stroke="#AAAAAA" stroke-width="0.50"></path><text x="200.40" y="71" font-size="11" fill="#000000" xml:space="preserve" style="white-space: pre" font-family="Verdana">ServiceBus</text><text x="5" y="260" font-size="11" fill="#000000" xml:space="preserve" style="white-space: pre" font-family="Verdana">Caller</text><circle cx="23.79" cy="197.50" r="8" fill="#CC0033" stroke="#AA0033" stroke-width="0.50"></circle><path d="M23.79,205.50 L23.79,232.50 M10.79,213.50 L36.79,213.50 M23.79,232.50 L10.79,247.50 M23.79,232.50 L36.79,247.50" fill="#00000000" stroke="#AA0033" stroke-width="0.50"></path><text x="77.53" y="232" font-size="11" fill="#000000" xml:space="preserve" style="white-space: pre" font-family="Verdana">Breakfast Provider</text><circle cx="131.47" cy="205" r="12" fill="#CC0033" stroke="#AA0033" stroke-width="0.50"></circle><line x1="119.47" y1="219" x2="143.47" y2="219" stroke="#AA0033" stroke-width="0.50"></line><path d="M200.40,189 L271.21,189 C276.21,189 276.21,200.50 276.21,200.50 C276.21,200.50 276.21,212 271.21,212 L200.40,212 C195.40,212 195.40,200.50 195.40,200.50 C195.40,200.50 195.40,189 200.40,189" fill="#CCCCCC" stroke="#AAAAAA" stroke-width="0.50"></path><path d="M271.21,189 C266.21,189 266.21,200.50 266.21,200.50 C266.21,212 271.21,212 271.21,212" fill="#00000000" stroke="#AAAAAA" stroke-width="0.50"></path><text x="200.40" y="205" font-size="11" fill="#000000" xml:space="preserve" style="white-space: pre" font-family="Verdana">ServiceBus</text><polygon points="119.47,101 129.47,105 119.47,109 123.47,105" fill="#000000" stroke="#000000" stroke-width="1"></polygon><line x1="23.79" y1="105" x2="125.47" y2="105" stroke="#000000" stroke-width="1"></line><text x="30.79" y="101" font-size="11" fill="#333333" xml:space="preserve" style="white-space: pre" font-weight="bold" font-family="Verdana">1</text><text x="42.61" y="101" font-size="11" fill="#333333" xml:space="preserve" style="white-space: pre" font-family="Verdana">GetBreakfast</text><path d="M136.47,91 L136.47,114 L241.47,114 L241.47,101 L231.47,91 L136.47,91" fill="#CC0033" stroke="#AA0033" stroke-width="0.50"></path><path d="M231.47,91 L231.47,101 L241.47,101 L231.47,91" fill="#CC0033" stroke="#AA0033" stroke-width="0.50"></path><text x="142.47" y="107" font-size="11" fill="#000000" xml:space="preserve" style="white-space: pre" font-family="Verdana">NoteBodyProbe</text><polygon points="223.80,134 233.80,138 223.80,142 227.80,138" fill="#000000" stroke="#000000" stroke-width="1"></polygon><line x1="131.47" y1="138" x2="229.80" y2="138" stroke="#000000" stroke-width="1"></line><text x="138.47" y="134" font-size="11" fill="#333333" xml:space="preserve" style="white-space: pre" font-weight="bold" font-family="Verdana">2</text><text x="150.29" y="134" font-size="11" fill="#333333" xml:space="preserve" style="white-space: pre" font-family="Verdana">publish</text><path d="M240.80,124 L240.80,147 L335.80,147 L335.80,134 L325.80,124 L240.80,124" fill="#CC0033" stroke="#AA0033" stroke-width="0.50"></path><path d="M325.80,124 L325.80,134 L335.80,134 L325.80,124" fill="#CC0033" stroke="#AA0033" stroke-width="0.50"></path><text x="246.80" y="140" font-size="11" fill="#000000" xml:space="preserve" style="white-space: pre" font-family="Verdana">NoteBodyTwo</text><polygon points="34.79,167 24.79,171 34.79,175 30.79,171" fill="#000000" stroke="#000000" stroke-width="1"></polygon><line x1="28.79" y1="171" x2="130.47" y2="171" stroke="#000000" stroke-width="1" stroke-dasharray="2,2"></line><text x="40.79" y="167" font-size="11" fill="#333333" xml:space="preserve" style="white-space: pre" font-weight="bold" font-family="Verdana">3</text><text x="52.61" y="167" font-size="11" fill="#0000FF" xml:space="preserve" style="white-space: pre" text-decoration="underline" font-family="Verdana">LinkProbe</text></g></svg>