<svg xmlns="http://www.w3.org/2000/svg" version="1.1" viewBox="0 0 370 279" width="370" height="279"><defs></defs><g><g><title>Caller</title><rect x="21.72" y="81" width="8" height="117" fill="#00000000" stroke="#00000000" stroke-width="0"></rect><line x1="25.22" y1="81" x2="25.22" y2="198" stroke="#ABABAB" stroke-width="1" stroke-dasharray="5,5"></line></g><g><title>Breakfast Provider</title><rect x="136.64" y="81" width="8" height="117" fill="#00000000" stroke="#00000000" stroke-width="0"></rect><line x1="140.14" y1="81" x2="140.14" y2="198" stroke="#ABABAB" stroke-width="1" stroke-dasharray="5,5"></line></g><g><title>ServiceBus</title><rect x="248.38" y="81" width="8" height="117" fill="#00000000" stroke="#00000000" stroke-width="0"></rect><line x1="251.88" y1="81" x2="251.88" y2="198" stroke="#ABABAB" stroke-width="1" stroke-dasharray="5,5"></line></g><text x="5" y="78" font-size="12" fill="#303030" xml:space="preserve" style="white-space: pre" font-family="'Verdana'">Caller</text><circle cx="25.22" cy="14" r="8" fill="#EEEEEE" stroke="#F1F1F1" stroke-width="1"></circle><path d="M25.22,22 L25.22,49 M12.22,30 L38.22,30 M25.22,49 L12.22,64 M25.22,49 L38.22,64" fill="#00000000" stroke="#F1F1F1" stroke-width="1"></path><text x="81.58" y="78" font-size="12" fill="#336699" xml:space="preserve" style="white-space: pre" font-family="'Verdana'">Breakfast Provider</text><circle cx="140.14" cy="50" r="12" fill="#EEEEEE" stroke="#F1F1F1" stroke-width="1"></circle><line x1="128.14" y1="64" x2="152.14" y2="64" stroke="#F1F1F1" stroke-width="1"></line><path d="M213.71,56 L290.05,56 C295.05,56 295.05,68.50 295.05,68.50 C295.05,68.50 295.05,81 290.05,81 L213.71,81 C208.71,81 208.71,68.50 208.71,68.50 C208.71,68.50 208.71,56 213.71,56" fill="#EEEEEE" stroke="#F1F1F1" stroke-width="1"></path><path d="M290.05,56 C285.05,56 285.05,68.50 285.05,68.50 C285.05,81 290.05,81 290.05,81" fill="#00000000" stroke="#F1F1F1" stroke-width="1"></path><text x="213.71" y="73" font-size="12" fill="#336699" xml:space="preserve" style="white-space: pre" font-family="'Verdana'">ServiceBus</text><text x="5" y="271" font-size="12" fill="#303030" xml:space="preserve" style="white-space: pre" font-family="'Verdana'">Caller</text><circle cx="25.22" cy="207" r="8" fill="#EEEEEE" stroke="#F1F1F1" stroke-width="1"></circle><path d="M25.22,215 L25.22,242 M12.22,223 L38.22,223 M25.22,242 L12.22,257 M25.22,242 L38.22,257" fill="#00000000" stroke="#F1F1F1" stroke-width="1"></path><text x="81.58" y="242" font-size="12" fill="#336699" xml:space="preserve" style="white-space: pre" font-family="'Verdana'">Breakfast Provider</text><circle cx="140.14" cy="214" r="12" fill="#EEEEEE" stroke="#F1F1F1" stroke-width="1"></circle><line x1="128.14" y1="228" x2="152.14" y2="228" stroke="#F1F1F1" stroke-width="1"></line><path d="M213.71,198 L290.05,198 C295.05,198 295.05,210.50 295.05,210.50 C295.05,210.50 295.05,223 290.05,223 L213.71,223 C208.71,223 208.71,210.50 208.71,210.50 C208.71,210.50 208.71,198 213.71,198" fill="#EEEEEE" stroke="#F1F1F1" stroke-width="1"></path><path d="M290.05,198 C285.05,198 285.05,210.50 285.05,210.50 C285.05,223 290.05,223 290.05,223" fill="#00000000" stroke="#F1F1F1" stroke-width="1"></path><text x="213.71" y="215" font-size="12" fill="#336699" xml:space="preserve" style="white-space: pre" font-family="'Verdana'">ServiceBus</text><polygon points="128.14,106 138.14,110 128.14,114 132.14,110" fill="#EEEEEE" stroke="#EEEEEE" stroke-width="1"></polygon><line x1="25.22" y1="110" x2="134.14" y2="110" stroke="#EEEEEE" stroke-width="3"></line><text x="32.22" y="105" font-size="12" fill="#303030" xml:space="preserve" style="white-space: pre" font-weight="bold" font-family="'Verdana'">1</text><text x="44.75" y="105" font-size="12" fill="#303030" xml:space="preserve" style="white-space: pre" font-family="'Verdana'">GetBreakfast</text><path d="M145.14,101.50 L145.14,111.50 A7.50,7.50 0 0 0 152.64,119 L250.64,119 A7.50,7.50 0 0 0 258.14,111.50 L258.14,104 L248.14,94 L152.64,94 A7.50,7.50 0 0 0 145.14,101.50" fill="#5C85AD" stroke="#336699" stroke-width="1"></path><path d="M248.14,94 L248.14,100.25 A3.75,3.75 0 0 0 251.89,104 L258.14,104 L248.14,94" fill="#5C85AD" stroke="#336699" stroke-width="1"></path><text x="151.14" y="111" font-size="12" fill="#FFFFFF" xml:space="preserve" style="white-space: pre" font-family="'Verdana'">NoteBodyProbe</text><polygon points="239.88,141 249.88,145 239.88,149 243.88,145" fill="#EEEEEE" stroke="#EEEEEE" stroke-width="1"></polygon><line x1="140.14" y1="145" x2="245.88" y2="145" stroke="#EEEEEE" stroke-width="3"></line><text x="147.14" y="140" font-size="12" fill="#303030" xml:space="preserve" style="white-space: pre" font-weight="bold" font-family="'Verdana'">2</text><text x="159.68" y="140" font-size="12" fill="#303030" xml:space="preserve" style="white-space: pre" font-family="'Verdana'">publish</text><path d="M256.88,136.50 L256.88,146.50 A7.50,7.50 0 0 0 264.38,154 L351.38,154 A7.50,7.50 0 0 0 358.88,146.50 L358.88,139 L348.88,129 L264.38,129 A7.50,7.50 0 0 0 256.88,136.50" fill="#5C85AD" stroke="#336699" stroke-width="1"></path><path d="M348.88,129 L348.88,135.25 A3.75,3.75 0 0 0 352.63,139 L358.88,139 L348.88,129" fill="#5C85AD" stroke="#336699" stroke-width="1"></path><text x="262.88" y="146" font-size="12" fill="#FFFFFF" xml:space="preserve" style="white-space: pre" font-family="'Verdana'">NoteBodyTwo</text><polygon points="36.22,176 26.22,180 36.22,184 32.22,180" fill="#EEEEEE" stroke="#EEEEEE" stroke-width="1"></polygon><line x1="30.22" y1="180" x2="139.14" y2="180" stroke="#EEEEEE" stroke-width="3" stroke-dasharray="2,2"></line><text x="42.22" y="175" font-size="12" fill="#303030" xml:space="preserve" style="white-space: pre" font-weight="bold" font-family="'Verdana'">3</text><text x="54.75" y="175" font-size="12" fill="#FFFFFF" xml:space="preserve" style="white-space: pre" text-decoration="underline" font-family="'Verdana'">LinkProbe</text></g></svg>