<svg xmlns="http://www.w3.org/2000/svg" version="1.1" viewBox="0 0 459 391" width="459" height="391"><defs></defs><g><g><title>Caller</title><rect x="21.72" y="81" width="8" height="229" fill="#00000000" stroke="#00000000" stroke-width="0"></rect><line x1="25.22" y1="81" x2="25.22" y2="310" stroke="#BABDBF" stroke-width="1" stroke-dasharray="5,5"></line></g><g><title>Breakfast Provider</title><rect x="136.64" y="81" width="8" height="229" fill="#00000000" stroke="#00000000" stroke-width="0"></rect><line x1="140.14" y1="81" x2="140.14" y2="310" stroke="#BABDBF" stroke-width="1" stroke-dasharray="5,5"></line></g><g><title>CosmosDB</title><rect x="240.50" y="81" width="8" height="229" fill="#00000000" stroke="#00000000" stroke-width="0"></rect><line x1="244.00" y1="81" x2="244.00" y2="310" stroke="#BABDBF" stroke-width="1" stroke-dasharray="5,5"></line></g><g><title>ServiceBus</title><rect x="328.97" y="81" width="8" height="229" fill="#00000000" stroke="#00000000" stroke-width="0"></rect><line x1="332.47" y1="81" x2="332.47" y2="310" stroke="#BABDBF" stroke-width="1" stroke-dasharray="5,5"></line></g><text x="5" y="78" font-size="12" fill="#2FA4E7" xml:space="preserve" style="white-space: pre" font-family="'Verdana'">Caller</text><circle cx="25.22" cy="14" r="8" fill="#00000000" stroke="#2FA4E7" stroke-width="1"></circle><path d="M25.22,22 L25.22,49 M12.22,30 L38.22,30 M25.22,49 L12.22,64 M25.22,49 L38.22,64" fill="#00000000" stroke="#2FA4E7" stroke-width="1"></path><text x="81.58" y="78" font-size="12" fill="#2FA4E7" xml:space="preserve" style="white-space: pre" font-family="'Verdana'">Breakfast Provider</text><circle cx="140.14" cy="50" r="12" fill="#00000000" stroke="#2FA4E7" stroke-width="1"></circle><line x1="128.14" y1="64" x2="152.14" y2="64" stroke="#2FA4E7" stroke-width="1"></line><text x="208.71" y="78" font-size="12" fill="#2FA4E7" xml:space="preserve" style="white-space: pre" font-family="'Verdana'">CosmosDB</text><path d="M226.00,30 C226.00,20 244.00,20 244.00,20 C244.00,20 262.00,20 262.00,30 L262.00,56 C262.00,66 244.00,66 244.00,66 C244.00,66 226.00,66 226.00,56 L226.00,30" fill="#00000000" stroke="#2FA4E7" stroke-width="1"></path><path d="M226.00,30 C226.00,40 244.00,40 244.00,40 C244.00,40 262.00,40 262.00,30" fill="#00000000" stroke="#2FA4E7" stroke-width="1"></path><path d="M294.30,56 L370.64,56 C375.64,56 375.64,68.50 375.64,68.50 C375.64,68.50 375.64,81 370.64,81 L294.30,81 C289.30,81 289.30,68.50 289.30,68.50 C289.30,68.50 289.30,56 294.30,56" fill="#00000000" stroke="#2FA4E7" stroke-width="1"></path><path d="M370.64,56 C365.64,56 365.64,68.50 365.64,68.50 C365.64,81 370.64,81 370.64,81" fill="#00000000" stroke="#2FA4E7" stroke-width="1"></path><text x="294.30" y="73" font-size="12" fill="#2FA4E7" xml:space="preserve" style="white-space: pre" font-family="'Verdana'">ServiceBus</text><text x="5" y="383" font-size="12" fill="#2FA4E7" xml:space="preserve" style="white-space: pre" font-family="'Verdana'">Caller</text><circle cx="25.22" cy="319" r="8" fill="#00000000" stroke="#2FA4E7" stroke-width="1"></circle><path d="M25.22,327 L25.22,354 M12.22,335 L38.22,335 M25.22,354 L12.22,369 M25.22,354 L38.22,369" fill="#00000000" stroke="#2FA4E7" stroke-width="1"></path><text x="81.58" y="354" font-size="12" fill="#2FA4E7" xml:space="preserve" style="white-space: pre" font-family="'Verdana'">Breakfast Provider</text><circle cx="140.14" cy="326" r="12" fill="#00000000" stroke="#2FA4E7" stroke-width="1"></circle><line x1="128.14" y1="340" x2="152.14" y2="340" stroke="#2FA4E7" stroke-width="1"></line><text x="208.71" y="368" font-size="12" fill="#2FA4E7" xml:space="preserve" style="white-space: pre" font-family="'Verdana'">CosmosDB</text><path d="M226.00,320 C226.00,310 244.00,310 244.00,310 C244.00,310 262.00,310 262.00,320 L262.00,346 C262.00,356 244.00,356 244.00,356 C244.00,356 226.00,356 226.00,346 L226.00,320" fill="#00000000" stroke="#2FA4E7" stroke-width="1"></path><path d="M226.00,320 C226.00,330 244.00,330 244.00,330 C244.00,330 262.00,330 262.00,320" fill="#00000000" stroke="#2FA4E7" stroke-width="1"></path><path d="M294.30,310 L370.64,310 C375.64,310 375.64,322.50 375.64,322.50 C375.64,322.50 375.64,335 370.64,335 L294.30,335 C289.30,335 289.30,322.50 289.30,322.50 C289.30,322.50 289.30,310 294.30,310" fill="#00000000" stroke="#2FA4E7" stroke-width="1"></path><path d="M370.64,310 C365.64,310 365.64,322.50 365.64,322.50 C365.64,335 370.64,335 370.64,335" fill="#00000000" stroke="#2FA4E7" stroke-width="1"></path><text x="294.30" y="327" font-size="12" fill="#2FA4E7" xml:space="preserve" style="white-space: pre" font-family="'Verdana'">ServiceBus</text><polygon points="8.53,94 348.53,94 358.53,105 348.53,117 8.53,117 -1.47,105 8.53,94" fill="#2E3440" stroke="#999999" stroke-width="1"></polygon><text x="137.66" y="110" font-size="12" fill="#ECEFF4" xml:space="preserve" style="white-space: pre" font-family="'Verdana'">StepBarProbe</text><polygon points="128.14,139 138.14,143 128.14,147 132.14,143" fill="#438DD5" stroke="#438DD5" stroke-width="1"></polygon><line x1="25.22" y1="143" x2="134.14" y2="143" stroke="#438DD5" stroke-width="3"></line><text x="32.22" y="138" font-size="12" fill="#343A40" xml:space="preserve" style="white-space: pre" font-weight="bold" font-family="'Verdana'">1</text><text x="44.75" y="138" font-size="12" fill="#343A40" xml:space="preserve" style="white-space: pre" font-family="'Verdana'">GetBreakfast</text><path d="M145.14,131 L145.14,163 A4,4 0 0 0 149.14,167 L254.14,167 A4,4 0 0 0 258.14,163 L258.14,137 L248.14,127 L149.14,127 A4,4 0 0 0 145.14,131" fill="#FEFFDD" stroke="#999999" stroke-width="1"></path><path d="M248.14,127 L248.14,135 A2,2 0 0 0 250.14,137 L258.14,137 L248.14,127" fill="#FEFFDD" stroke="#999999" stroke-width="1"></path><text x="151.14" y="144" font-size="12" fill="#5A5A5A" xml:space="preserve" style="white-space: pre" font-family="'Verdana'">HeaderProbe</text><text x="151.14" y="159" font-size="12" fill="#033C73" xml:space="preserve" style="white-space: pre" font-family="'Verdana'">NoteBodyProbe</text><polygon points="232.00,189 242.00,193 232.00,197 236.00,193" fill="#E74C3C" stroke="#E74C3C" stroke-width="1"></polygon><line x1="140.14" y1="193" x2="238.00" y2="193" stroke="#E74C3C" stroke-width="3"></line><text x="147.14" y="188" font-size="12" fill="#343A40" xml:space="preserve" style="white-space: pre" font-weight="bold" font-family="'Verdana'">2</text><text x="159.68" y="188" font-size="12" fill="#343A40" xml:space="preserve" style="white-space: pre" font-family="'Verdana'">query</text><path d="M249.00,181 L249.00,198 A4,4 0 0 0 253.00,202 L347.00,202 A4,4 0 0 0 351.00,198 L351.00,187 L341.00,177 L253.00,177 A4,4 0 0 0 249.00,181" fill="#FEFFDD" stroke="#999999" stroke-width="1"></path><path d="M341.00,177 L341.00,185 A2,2 0 0 0 343.00,187 L351.00,187 L341.00,177" fill="#FEFFDD" stroke="#999999" stroke-width="1"></path><text x="255.00" y="194" font-size="12" fill="#033C73" xml:space="preserve" style="white-space: pre" font-family="'Verdana'">NoteBodyTwo</text><polygon points="320.47,224 330.47,228 320.47,232 324.47,228" fill="#9B59B6" stroke="#9B59B6" stroke-width="1"></polygon><line x1="140.14" y1="228" x2="326.47" y2="228" stroke="#9B59B6" stroke-width="3"></line><text x="147.14" y="223" font-size="12" fill="#343A40" xml:space="preserve" style="white-space: pre" font-weight="bold" font-family="'Verdana'">3</text><text x="159.68" y="223" font-size="12" fill="#343A40" xml:space="preserve" style="white-space: pre" font-family="'Verdana'">publish</text><path d="M337.47,217 L337.47,230 A5,5 0 0 0 342.47,235 L443.47,235 A5,5 0 0 0 448.47,230 L448.47,222 L438.47,212 L342.47,212 A5,5 0 0 0 337.47,217" fill="#CFECF7" stroke="#999999" stroke-width="1"></path><path d="M438.47,212 L438.47,219.50 A2.50,2.50 0 0 0 440.97,222 L448.47,222 L438.47,212" fill="#CFECF7" stroke="#999999" stroke-width="1"></path><text x="343.47" y="228" font-size="11" fill="#101010" xml:space="preserve" style="white-space: pre" font-family="'Verdana'">EventBodyProbe</text><polygon points="8.53,245 348.53,245 358.53,255 348.53,266 8.53,266 -1.47,255 8.53,245" fill="#D4EDDA" stroke="#999999" stroke-width="1"></polygon><text x="139.81" y="260" font-size="11" fill="#101010" xml:space="preserve" style="white-space: pre" font-family="'Verdana'">✓</text><text x="148.04" y="260" font-size="11" fill="#101010" xml:space="preserve" style="white-space: pre" font-family="'Verdana'"> </text><text x="151.91" y="260" font-size="11" fill="#101010" xml:space="preserve" style="white-space: pre" font-family="'Verdana'">AssertProbe</text><polygon points="36.22,288 26.22,292 36.22,296 32.22,292" fill="#2FA4E7" stroke="#2FA4E7" stroke-width="1"></polygon><line x1="30.22" y1="292" x2="139.14" y2="292" stroke="#2FA4E7" stroke-width="3" stroke-dasharray="2,2"></line><text x="42.22" y="287" font-size="12" fill="#343A40" xml:space="preserve" style="white-space: pre" font-weight="bold" font-family="'Verdana'">4</text><text x="54.75" y="287" font-size="12" fill="#FD7E14" xml:space="preserve" style="white-space: pre" text-decoration="underline" font-family="'Verdana'">LinkProbe</text></g></svg>